<?xml version="1.0" encoding="UTF-8"?>
<svg id="Camada_1" data-name="Camada 1" xmlns="http://www.w3.org/2000/svg" viewBox="0 0 1034.04 1080">
  <defs>
    <style>
      .cls-1 {
        fill: #ebeef0;
      }

      .cls-2 {
        fill: #f34336;
      }

      .cls-3 {
        fill: #f2921d;
      }

      .cls-4 {
        fill: #ced7db;
      }
    </style>
  </defs>
  <circle class="cls-3" cx="521.61" cy="537.53" r="426.64"/>
  <g>
    <path class="cls-2" d="M332.08,346.99l189.9,149.65,189.21-149.65c18.8.34,33.03-1.46,48.16,11.88,9.1,8.03,13.24,17.29,16.35,28.81v300.71c-3.57,11.09-7.44,19.95-16.35,27.81-14.89,13.14-28.64,11.52-47.17,11.88v-296.74s-189.55,145.89-189.55,145.89c-3.47-2.71-8.83-5.45-12.8-8.54-59.29-46.14-119.03-91.75-178.73-137.35v296.74c-35.4-.67-58.98-7-63.57-47.09v-286.91c4.7-40.8,28.87-46.45,64.56-47.09Z"/>
    <path class="cls-1" d="M522.63,577.24c60.19,46.91,121.08,95.87,181.08,143.94,2.3,1.84,6.06,3.95,6.49,6.91-124.93,2.07-254.22,2.37-379.11,0v-296.74c59.71,45.6,119.45,91.2,178.74,137.35,3.97,3.09,9.33,5.83,12.8,8.54Z"/>
    <path class="cls-1" d="M711.19,346.99l-189.21,149.65-189.9-149.65c124.88-2.24,254.23-2.24,379.11,0Z"/>
    <path class="cls-4" d="M712.18,728.09c-.66.01-1.32-.01-1.98,0-.43-2.96-4.19-5.06-6.49-6.91-60-48.08-120.89-97.03-181.08-143.94l189.54-145.89v296.74Z"/>
  </g>
</svg>