<?xml version="1.0" encoding="UTF-8"?>
<svg id="Camada_1" data-name="Camada 1" xmlns="http://www.w3.org/2000/svg" xmlns:xlink="http://www.w3.org/1999/xlink" viewBox="0 0 1080 1080">
  <defs>
    <style>
      .cls-1 {
        fill: #fff;
      }

      .cls-2 {
        filter: url(#drop-shadow-1);
      }
    </style>
    <filter id="drop-shadow-1" x="122" y="123" width="850" height="848" filterUnits="userSpaceOnUse">
      <feOffset dx="7" dy="7"/>
      <feGaussianBlur result="blur" stdDeviation="6"/>
      <feFlood flood-color="#d94929" flood-opacity=".2"/>
      <feComposite in2="blur" operator="in"/>
      <feComposite in="SourceGraphic"/>
    </filter>
  </defs>
  <g id="Troféu_icon" data-name="Troféu icon" class="cls-2">
    <path class="cls-1" d="M810.74,209.09c27.07,1.95,58.77-3.75,85.01,2.59,24.84,6,46.89,28.93,49.48,54.93,3,30.23,2.55,100.31-6.16,128.3-12.74,40.95-48.89,77.6-89.77,90.73-27.18,8.74-51.3,5.84-79.27,7.44-28.33,58.52-77.3,106.71-138.02,130.96-4.73,3.93,1.41,27.72,2.98,34.21,8.5,35.32,30.91,78.76,55.48,105.56,13.59,14.82,9.95,8.84,27.17,11.76,17.14,2.91,30.14,8.91,38.94,24.77,6.72,12.1,30.01,81.79,30.97,94.71,1.86,25.01-16.38,47.28-41.31,50.27h-412.46c-24.92-2.89-43.19-25.48-41.52-50.47.82-12.18,24.27-81.28,30.59-93.32,8.75-16.64,21.72-22.94,39.52-25.96,17.22-2.92,13.58,3.06,27.17-11.76,32.34-35.27,57.04-89.99,59.97-137.75-13.18-7.64-27.38-13.51-40.32-21.61-42.89-26.85-77.12-65.87-99.21-111.37-28.53-1.53-52.95,1.29-80.6-7.88-40.19-13.33-75.85-49.81-88.44-90.29-8.71-28-9.16-98.05-6.16-128.3.99-9.96,4.88-18.7,10.2-26.96,27.54-42.74,81.02-27.96,124.28-30.56-2.97-36.49,21.78-70.76,59.21-74.4l426.35.25c35.83,5.43,58.68,38.75,55.92,74.14ZM332.44,191.76c-4.33,2.03-7.39,6.06-6.66,11.02,21.06,128.82-14.55,278.02,117.03,355.66,122.78,72.44,272.25-9.51,293.12-145.46,10.46-68.08,8.07-141.65,18.28-210.2l-3.48-8.89-418.29-2.13ZM274.56,265.71h-75.21c-3.57,0-7.53,5.81-8.05,9.65-2.4,17.61-1.73,68.4.1,86.78,3.05,30.56,37.69,73.46,69.88,73.46h29.2l-15.93-169.88ZM789.52,435.59h29.2c32.19,0,66.83-42.9,69.88-73.46,1.84-18.38,2.51-69.17.1-86.78-.52-3.83-4.48-9.65-8.05-9.65h-75.21l-15.93,169.88ZM626.71,775.35c-4.42-10.05-11.55-18.67-16.85-28.28-12.21-22.14-22.51-47.37-29.03-71.84-1.46-5.47-5.31-31.31-6.22-32.71-.83-1.26-2.16-1.74-3.63-1.73-20.6,3.71-41.37,3.71-61.96,0l-4.13,2.99c-4.28,36.28-17.71,72.7-35.37,104.43-5.12,9.19-12.1,17.43-16.23,27.13h173.42ZM727.58,888.61l-17.99-53.69c-3.91-6.46-18.61-1.28-25.29-1.09-93.29,2.69-195.32,2.67-288.62,0-7.61-.22-14.96-3.3-22.68-1.6l-20.59,56.38h375.16Z"/>
  </g>
</svg>