<?xml version="1.0" encoding="UTF-8"?>
<svg id="Camada_1" data-name="Camada 1" xmlns="http://www.w3.org/2000/svg" xmlns:xlink="http://www.w3.org/1999/xlink" viewBox="0 0 1080 1080">
  <defs>
    <style>
      .cls-1 {
        fill: #fff;
      }

      .cls-2 {
        filter: url(#drop-shadow-1);
      }
    </style>
    <filter id="drop-shadow-1" x="68" y="194" width="958" height="706" filterUnits="userSpaceOnUse">
      <feOffset dx="7" dy="7"/>
      <feGaussianBlur result="blur" stdDeviation="6"/>
      <feFlood flood-color="#d94929" flood-opacity=".2"/>
      <feComposite in2="blur" operator="in"/>
      <feComposite in="SourceGraphic"/>
    </filter>
  </defs>
  <g class="cls-2">
    <path class="cls-1" d="M887.47,609.62v-92.23l-57.94,24.73-.15,194.78c-6.18,54.77-51.01,77.54-96.22,97.28-122.21,53.38-265.03,53.18-387.06-.57-45.19-19.9-90.24-42.96-95.17-98.33l-.33-194.09-142.42-61.02c-42.77-29.52-36.44-81.56,9.48-104.16,123.53-60.78,262.77-104.44,387.79-163.79,42.36-14.12,63.7-2.18,101.66,13.16,123.83,50.06,245.89,105.45,368.87,157.39,19.62,15.45,28.87,37.65,22.78,62.34-8.55,34.68-41.68,42.06-70.44,54.35l-2.87,4.37v101.29c.93,4.96,8.01,6.63,11.71,9.98,24.26,21.92,23.35,53.79-.73,75.26,7.41,10.26,16.01,17.01,17.8,30.65,1.18,9.01,1.34,59.05-1.22,65.39s-11.51,10.31-17.78,11.16c-12.31,1.67-41.4,1.36-54.17.23-9.73-.86-19-4.13-21.68-14.49-2.34-9.03-1.98-51.93-.42-62.01,1.98-12.75,10.39-21.1,17.52-30.93-26.92-22.35-23.54-68.84,10.98-80.72ZM530.77,244.79c-10.87,1.59-28.33,10.53-39.29,14.96-121.82,49.19-241.51,104.17-363,154.22-17.48,11.2-10.77,31.41,7.27,36.83,126.21,46.02,251.41,115.71,377.44,159.67,29.29,10.22,35.5,7.01,63.17-3.61,108.6-41.68,222.13-92.48,329.14-139.25,20.62-9.01,77.14-23.09,48.78-52.28-126.6-51.35-250.47-111.72-377.92-161-16.37-6.33-26.95-12.25-45.59-9.53ZM791.62,558.98c-3.92-.32-7.29,1.46-10.81,2.75-68.26,25.04-137.41,64.41-205.76,87.21-24.87,8.3-44.67,8.32-69.61,0-68.27-22.77-137.48-62.12-205.76-87.21-3.52-1.29-6.89-3.08-10.81-2.75v170.9c0,42.2,64.5,66.27,97.21,78.21,113.05,41.26,236.59,36.16,345.27-15.5,25.26-12.01,60.26-29.55,60.26-62.71v-170.9ZM906.79,642.65c-9.44.19-13.45,12.29-5.56,17.41,14.96,9.72,22.04-17.75,5.56-17.41ZM916.41,757.91v-31.65c0-7.24-19.89-9.01-19.89,1.81v29.84h19.89Z"/>
  </g>
</svg>