<?xml version="1.0" encoding="UTF-8"?>
<svg id="Camada_1" data-name="Camada 1" xmlns="http://www.w3.org/2000/svg" xmlns:xlink="http://www.w3.org/1999/xlink" viewBox="0 0 1080 1080">
  <defs>
    <style>
      .cls-1 {
        fill: #fff;
      }

      .cls-2 {
        filter: url(#drop-shadow-1);
      }
    </style>
    <filter id="drop-shadow-1" x="200" y="96" width="694" height="902" filterUnits="userSpaceOnUse">
      <feOffset dx="7" dy="7"/>
      <feGaussianBlur result="blur" stdDeviation="6"/>
      <feFlood flood-color="#d94929" flood-opacity=".2"/>
      <feComposite in2="blur" operator="in"/>
      <feComposite in="SourceGraphic"/>
    </filter>
  </defs>
  <g class="cls-2">
    <path class="cls-1" d="M808.7,232.12c32.72,11.74,55.16,41.35,59.31,75.81l.1,581.55c-4.06,44.22-38.8,78.89-82.94,82.94h-490.32c-44.22-4.06-78.89-38.8-82.94-82.94V190.42c4.03-43.66,37.78-77.82,81.17-82.84l435.87.2c32.62,4.51,61.72,26,73.4,57.06,8.55,22.73,5.49,43.58,6.34,67.29ZM748.75,226.83v-36.34c0-8.99-16.97-24.26-27.02-23.3h-423.1c-22.42,2.3-34.74,27.32-22.27,46.51,2.73,4.21,13.88,13.14,18.55,13.14h453.84ZM271.61,286.47v602.95c0,6.87,13.18,21.11,20.85,22.02l487.12,1.35c12.75-.3,23.81-8.93,27.54-20.92V307.32c-.91-7.66-15.16-20.85-22.02-20.85H271.61Z"/>
    <path class="cls-1" d="M584.35,406.3c120.01-11.69,204.32,115.96,145.4,221.82-39.36,70.72-121.8,92.35-194.73,61.26-4.79-2.04-15.85-10.48-19.2-8.8l-137.03,137.1c-27.59,19.31-60.33-12.66-42.79-40.93l138.49-139.21c-59.74-93.48-1.53-220.38,109.86-231.23ZM588.05,465.92c-111.4,13.42-98.29,185.59,18.09,178.37,118.38-7.35,104.01-193.09-18.09-178.37Z"/>
  </g>
</svg>