<?xml version="1.0" encoding="UTF-8"?>
<svg id="Jonathan_com_balão" data-name="Jonathan com balão" xmlns="http://www.w3.org/2000/svg" xmlns:xlink="http://www.w3.org/1999/xlink" viewBox="0 0 4561.4 4321.15">
  <defs>
    <style>
      .cls-1, .cls-2, .cls-3, .cls-4 {
        stroke-width: 12px;
      }

      .cls-1, .cls-5, .cls-6 {
        stroke-linecap: round;
        stroke-linejoin: round;
      }

      .cls-1, .cls-6, .cls-3, .cls-4 {
        stroke: #d94929;
      }

      .cls-1, .cls-3 {
        fill: #f2921d;
      }

      .cls-2, .cls-7 {
        fill: #f2f2f2;
      }

      .cls-2, .cls-8 {
        stroke: #092a95;
      }

      .cls-2, .cls-8, .cls-9, .cls-3, .cls-4 {
        stroke-miterlimit: 10;
      }

      .cls-10 {
        fill: #fe8f17;
      }

      .cls-8 {
        stroke-width: 2px;
      }

      .cls-8, .cls-11, .cls-12 {
        fill: #092a95;
      }

      .cls-5, .cls-9 {
        stroke: #f27127;
      }

      .cls-5, .cls-9, .cls-6 {
        fill: none;
      }

      .cls-5, .cls-6 {
        stroke-width: 9px;
      }

      .cls-13 {
        font-family: Poppins-Medium, Poppins;
        font-weight: 500;
      }

      .cls-14 {
        fill: #fe842c;
      }

      .cls-15 {
        clip-path: url(#clippath-1);
      }

      .cls-16 {
        font-family: Poppins-Bold, Poppins;
        font-weight: 700;
      }

      .cls-9 {
        stroke-width: 7px;
      }

      .cls-11 {
        font-size: 177.46px;
      }

      .cls-17 {
        fill: #fe6b2c;
      }

      .cls-18 {
        opacity: .2;
      }

      .cls-19 {
        fill: #f2a516;
      }

      .cls-20 {
        fill: #fe7830;
      }

      .cls-21 {
        fill: #d94929;
      }

      .cls-22 {
        clip-path: url(#clippath);
      }

      .cls-23 {
        fill: #fe9e12;
      }

      .cls-4 {
        fill: #f27127;
      }
    </style>
    <clipPath id="clippath">
      <path class="cls-19" d="M2893.54,1590.69c-61.44-3.94-129.2,21.69-169.01,76.06-39.55,54.02-35.48,114.5-33.8,139.44,1.56,23.15,4.58,72.97,38.03,114.08,55.48,68.19,167.55,91.89,253.52,42.25,70.45-40.68,114.07-125.22,97.18-211.27-18.39-93.75-101.9-155.17-185.92-160.56Z"/>
    </clipPath>
    <clipPath id="clippath-1">
      <path class="cls-19" d="M3421.71,1594.91c-101.43,22.73-194.47,133.89-164.79,245.07,27.77,104.02,146.38,145.98,228.17,139.44,16.26-1.3,76.97-6.16,122.54-54.93,43.1-46.13,45.46-102.45,46.48-126.76.95-22.66,3.88-92.55-46.48-147.89-49.49-54.38-126.37-68.28-185.92-54.93Z"/>
    </clipPath>
  </defs>
  <path class="cls-18" d="M2697.93,3877.18c-44.51,8.85-342.96,70.11-345.22,165.38-2.15,90.57,270.46,166.78,337.63,185.55,44.01,12.3,123.28,31.86,402.13,52.44,212.91,15.72,493.87-.63,580.43-8.07,48.02-4.13,263.47-58.06,280.73-189.59,9.66-73.6-128.57-159.22-197.27-177.49-91.05-24.2-113.85-33.64-261.76-44.37-160.37-11.64-142.93,1.29-273.14-8.07-122.63-8.81-300.63-10.79-523.52,24.2Z"/>
  <g id="Completo">
    <path id="Outline" class="cls-4" d="M3472.41,3424.49c18.47,7.94,71.23,29.99,143.66,42.25,76.9,13.02,149.26,25.3,202.82-16.9,47.63-37.54,56.94-99.36,59.15-114.08,12.03-79.95-34.5-109-16.9-177.46,15.02-58.42,62.7-90.96,71.83-97.18,61.3-41.82,165.48-55.3,223.94,4.23,73.92,75.26,34.55,226.26-29.58,253.52-24.63,10.47-61.02,6.13-71.83-12.68-21.97-38.24,79.81-105.01,59.15-160.56-12.19-32.8-65.28-56.94-97.18-42.25-49.86,22.96-10.36,123.47-63.38,270.42-19.64,54.43-39.81,110.18-88.73,152.11-101.27,86.81-257.85,56.08-392.96,29.58-131.88-25.88-235.07-58.41-308.45-109.86-183.8-128.87-170.92-259.63-234.51-306.34,91.84-62.01,121.59,73.47,166.9,78.17,122.17,12.68,157.53,113.17,376.06,207.04Z"/>
    <path class="cls-18" d="M3049.88,3348.43c10.82,13.37,21.51,29.86,38.03,42.25,16.9,12.68,20.43,18.76,33.8,29.58,33.8-26.76,88.73-32.39,122.54-59.15-8.45-14.08-29.58-40.84-38.03-54.93-13.98-1.55-145.87-15.4-158.45,23.24-1.52,4.68-1.53,10.82,2.11,19.01Z"/>
    <path id="Braço_esquerdo" data-name="Braço esquerdo" class="cls-3" d="M4359.73,2570.97c-16.33,5.3-31.22,12.82-60.23,33.1-19.02,13.3-43.47,31.65-70.76,55.63-83.49,96.42-166.97,192.84-250.46,289.26-26.53,30.64-73.72,31.7-101.6,2.27l-176.12-185.9c42.25-49.3,97.18-107.04,139.44-156.34,30.99,25.35,49.3,59.15,80.28,84.51,49.3-53.52,98.59-107.04,147.89-160.56-5.57-30.3-8.83-65.2,4.23-122.54,28.9-126.89,114.69-172.46,202.82-215.49,42.56-20.78,115.75-59.45,139.44-46.48,11.52,6.3,14.18,14.61,16.9,29.58,12.2,67.2-159.07,114.2-156.34,118.31,1.52,2.28,43.12-28.67,76.06-16.9,28.93,10.34,17.9,39.89,63.38,84.51,17.58,17.25,33.16,25.18,33.8,42.25.73,19.23-18.42,25.84-16.9,42.25,2.4,26,52.13,27.91,54.93,50.7,2.84,23.15-44.49,53.29-84.51,63.38-17.9,4.51-22.41,2.01-42.25,8.45Z"/>
    <g id="Dedos">
      <path class="cls-3" d="M4440.02,2427.31c16.16,5.36,53.29,36.12,54.93,63.38,2.13,35.56-77.9,82.98-126.76,59.15-20.86-10.17-38.99-34.78-33.8-50.7,4.05-12.44,20.1-12.77,63.38-38.03,20.59-12.01,67.61-88.73,25.35-16.9-.09.16-61.83,59.07-101.41,42.25-12.91-5.48-24-19.29-25.35-33.8-4.45-47.85,97.58-96.57,97.18-97.18-.44-.7-112.5,87.57-143.66,63.38-15.15-11.76-6.75-46.65,0-63.38,23.84-59.09,85.39-71.51,88.73-71.83"/>
      <path class="cls-3" d="M4093.05,2345.9c11.33-48.21,30.09-57.03,37.7-59.29,21.32-6.33,36.82,14.57,110.02,69.5,53.55,40.18,68.44,46.39,66.9,58.73-3.01,24.24-31.58,25.88-83.19,15.31-9.44-1.93-38.17-4.19-96.79-38.27-16.21-9.42-34.03-35.66-34.64-45.98Z"/>
    </g>
    <path id="Braço_direito" data-name="Braço direito" class="cls-1" d="M2231.64,3107.46c-2.13,21.75-1.11,43.75-34.2,81.23-4.55,5.16-51,56.62-72.68,47.03-17.89-7.92-21.07-37.15-8.55-89.78-45.86,54.61-88.62,65.37-106.88,51.3-16.72-12.88-20.61-50.05,4.28-98.33-33,43.32-73.44,55.23-89.78,42.75-16.41-12.53-20.98-59.2,12.83-102.6-44.67,21.67-69.09,8.97-72.68,0-8.55-21.38,26.15-81.86,72.68-128.26,39.42-39.31,75.04-49.67,86.29-52.46,8.71-2.16,27.31-6.61,51.5-3.9,13.02,1.46,23.63,4.54,31.08,7.2,62.7-52.73,125.41-105.45,188.11-158.18,57,44.18,116.14,73.39,173.15,117.57-25.65,34.2-71.6,69.96-111.16,102.6-30.32,25.02-60.46,42.67-83.37,66.27.07.1.13.2.2.3,14.05,21.17,33.42,79.72,27.59,104.44-16.8,71.27-49.55,87.26-59.85,89.78-7.45,1.82-14.52.97-14.52.97-6.83-.83-12.11-3.33-15.4-5.24"/>
    <path id="Perna_direita" data-name="Perna direita" class="cls-3" d="M3045.65,3306.18c-1.41,183.1-2.82,349.3-4.23,532.39,8.45,47.89,16.9,95.77,25.35,143.66,5.86,1.76,12,4.84,14.79,10.56,9.28,19.08-25.28,53.95-44.37,69.72-33.15,27.38-68.37,37.38-99.3,44.37-77.81,17.58-165.89,37.48-264.08,2.11-33.46-12.05-69.41-25.55-76.06-54.93-7.23-31.99,23.58-67.69,50.7-84.51,23.14-14.35,46.35-16.67,59.15-16.9,19.79-24.7,39.52-50.05,59.15-76.06,4.26-5.64,8.48-11.27,12.68-16.9-.7-179.67-1.4-359.33-2.1-539,0-1.32-.01-2.64-.02-3.96,89.44-9.15,183.8-10.56,268.31-10.56Z"/>
    <path id="Outline-2" data-name="Outline" class="cls-3" d="M3472.41,3555.48c.14,46.44-2.13,131.32-12.68,300,20.37,97.73,47.84,126.35,71.83,130.99,27.06,5.23,51.92-19.62,84.51-4.23,16.63,7.86,32.8,25.03,29.58,33.8-1.75,4.77-8.68,5.52-8.45,8.45.43,5.45,24.44,2.16,33.8,12.68,11.55,12.97-1.12,44.71-12.68,63.38-31.14,50.3-91.54,65.98-114.08,71.83-144.24,37.44-336.77-54.63-371.83-71.83.56-5.62,7.73-77.32,8.3-83.02,0,0,.15-1.48.15-1.49,21.13-39.44,42.25-78.87,63.38-118.31-5.63-198.59-11.27-397.18-16.9-595.77,81.69,1.41,163.38,2.82,245.07,4.23.11,20.96.22,41.93.32,62.89-.1,13.31-.23,34.14-.32,59.65-.25,68.54-.02,118.51,0,126.76Z"/>
    <path class="cls-18" d="M3227.34,3403.36c83.1-15.49,166.2-47.89,249.3-63.38-84.51-4.23-169.01-8.45-253.52-12.68,1.41,19.72,2.82,56.34,4.23,76.06Z"/>
    <path class="cls-18" d="M2775.23,3335.76c91.55-2.82,183.1-5.63,274.65-8.45-1.41,25.35,1.41,50.7,0,76.06-90.14-22.54-184.51-45.07-274.65-67.61Z"/>
    <path class="cls-18" d="M2276.64,2706.18c35.21,69.01,70.42,138.03,105.63,207.04,28.17-23.94,56.34-47.89,84.51-71.83-63.38-45.07-126.76-90.14-190.14-135.21Z"/>
    <path class="cls-18" d="M3869.59,2621.67c-33.8,80.28-67.61,143.66-101.41,223.94-35.21-30.99-70.42-61.97-105.63-92.96,69.01-49.3,138.03-81.69,207.04-130.99Z"/>
    <path id="Camiseta" class="cls-8" d="M3583.39,3335.74c-308.54-.69-617.09-1.39-925.63-2.08-3.95,0-7.12-3.25-7.04-7.2l12.31-627.75c.1-5.34-5.58-8.93-10.3-6.43-40.53,21.54-66.15,57.47-116.24,117.42-11.5,13.77-31.23,37.22-42.33,52.98-2.32,3.3-6.91,3.94-10.05,1.41-4.17-3.35-9.34-7.48-15.22-12.14-85.95-68.05-118.93-85.51-169.01-130.99-11.42-10.37-27.65-25.76-46.25-45.85-2.52-2.72-2.48-6.94.06-9.63,117.51-124.42,235.01-248.84,352.52-373.26,1.35-1.43,3.24-2.23,5.21-2.2,356.26,4.78,712.53-11.19,1068.79-6.43,2.19.03,4.22,1.06,5.5,2.83,60.06,82.67,136.9,195.27,199.75,281.55,9.23,12.67,6.44,30.68-6.12,40.05-25.28,18.85-20.72,19.97-43.54,39-61.7,51.42-107.64,111.37-156.14,161.41-1.89,2.3-3.75,4.57-5.64,6.86-8.3,11.21-19.91.75-24.14-11.93-12.61-37.82-45.75-133.48-46.48-122.54-4.2,63.02-28.11,218.76-12.94,647.57.14,4-3.06,7.36-7.07,7.35Z"/>
    <path class="cls-18" d="M2910.44,2338.58c5.3-6.72,57.68,17.97,274.65,164.79,91.89-50.51,158.42-97.13,202.82-130.99,25.28-19.28,49.2-38.85,54.93-33.8,9.47,8.34-34.35,80.11-80.28,130.99-34.13,37.81-97.57,95.26-207.04,135.21-46.31-17.56-210.01-93.87-249.3-232.39-1.08-3.8-.93-7.72-.93-7.72-.62-13.27,3.85-24.44,5.16-26.09Z"/>
    <path id="Cabeça" class="cls-3" d="M2608.33,2268.86c-36.19,23.29-69.28,41.33-76.06,33.8-10.68-11.86,51.99-78.44,42.25-88.73-11.75-12.43-115.14,71.89-122.54,63.38-3.29-3.78,13.64-24.43,38.03-50.7-49.3,18.31-98.59,36.62-147.89,54.93-20.28-3.08-41.31-8.18-42.25-16.9-2.37-21.94,124.52-47.77,122.54-59.15-1.03-5.87-36.16-7.02-147.89,4.23-7.04-8.45-14.08-16.9-21.13-25.35,111.1-19.85,148.56-31.38,147.89-38.03-1.49-14.71-189.32-.28-194.37-29.58-4.16-24.12,118.91-58.7,114.08-80.28-4.44-19.82-112.09-7.94-114.08-21.13-2.48-16.39,162.15-44.72,160.56-71.83-1.51-25.76-152.05-31.46-152.11-50.7-.07-19.05,136.58-30.41,147.89-46.48,19.34-27.48-228.15-47.66-236.62-63.38-7.73-14.35,220.54-9.03,223.94-38.03,2.79-23.8-142.44-51.76-139.44-76.06,3.32-26.91,184.99-21.48,185.92-38.03.89-15.86-165.4-32.1-164.79-50.7.6-18.39,163.57-19.3,164.79-38.03.75-11.57-60.29-28.81-236.62-54.93-25.03-16.61-36.3-29.29-33.8-38.03,4.57-16,55.28-18.82,152.11-8.45,4.23-7.04,8.45-14.08,12.68-21.13,58.04,7.8,87.61,9.21,88.73,4.23,1.58-7.02-53.36-26.74-164.79-59.15-4.67-4.56-11.98-12.9-16.9-25.35-6.54-16.54-5.27-31.2-4.23-38.03,66.95,9.37,117.36,27.04,152.11,42.25,42.92,18.79,83.54,43.27,143.66,42.25,16.72-.28,31.93-2.49,48.59-6.34,104.8-24.22,201.8-98.48,259.86-133.1,50.85-30.32,129.86-64.82,247.18-73.94-9.93-25.04-28.15-62.19-61.27-99.3-37.66-42.21-78-65.78-103.52-78.17,10.35-8.86,77.62-64.67,162.68-48.59,15.18,2.87,59.32,11.21,92.96,50.7,25.01,29.37,31.68,61.25,33.8,76.06,18.11-33.15,50.17-82.37,103.52-128.87,57.62-50.22,115.37-75.75,152.11-88.73,25.35,30.99,50.7,61.97,76.06,92.96-98.59,64.79-197.18,129.58-295.77,194.37,67.02-10.2,176.04-18.11,304.23,12.68,102.01,24.5,180.43,64.91,232.39,97.18,64.19,60.81,100.45,100.88,120.42,128.87,6.96,9.76,25.99,37.74,48.59,35.92,5.55-.45,9.93-2.58,12.68-4.23,142.76-45.98,243.6-78.02,304.23-97.18,0,0,77.52-24.51,80.28-16.9,1.78,4.9-45.02,23.77-42.25,33.8,2.26,8.17,34.81,1.06,38.03,8.45,4.16,9.57-41.18,42.68-190.14,122.54-12.68,15.49-25.35,30.99-38.03,46.48,26.01-6.54,62.17-15.4,105.63-25.35,57.43-13.15,67.07-14.32,67.61-12.68,2.49,7.59-190.8,67.85-185.92,88.73,2.35,10.05,49.89,7.96,135.21,4.23,82.01-3.59,121.41-9.38,122.54-4.23,2.97,13.58-266.17,72.98-261.97,101.41,3.03,20.56,147.4,14.23,147.89,25.35.51,11.73-159.92,20.8-160.56,42.25-.45,14.87,76.25,21.84,198.59,67.61,47.04,17.6,107.82,43.54,105.63,50.7-4.2,13.72-234.95-56.09-245.07-29.58-3.47,9.1,19.97,27.21,50.7,46.48,19.27.34,52.56,3.47,88.73,21.13,26.16,12.77,67.69,39.91,63.38,50.7-8.65,21.67-193.37-44.15-202.82-21.13-6.21,15.15,66.37,61.71,88.73,76.06,46.07,29.55,77.65,41.97,76.06,46.48-3.55,10.06-163.93-42.67-169.01-29.58-4.71,12.14,127.69,71.59,122.54,84.51-4.38,10.98-103.58-23.12-109.86-8.45-5.24,12.25,57.68,50.58,54.93,54.93-2.55,4.04-56.41-29.73-63.38-21.13-5.26,6.49,22.39,29.36,42.25,76.06,3.56,8.36,24.86,58.45,12.68,67.61-20.37,15.3-124.44-91.18-126.76-88.73-2.49,2.62,123.99,117.9,114.08,130.99-12.62,16.67-247.43-145.19-257.75-130.99-8.24,11.34,136.95,120.6,122.54,143.66-6.28,10.05-40.77.38-76.06-12.68-52.11-28.17-104.23-56.34-156.34-84.51,40.49,62.57,47.56,84.17,42.25,88.73-12.11,10.41-85.18-70.98-122.54-50.7-9.83,5.33-14.48,16.24-16.9,25.35-31.6,26.92-74.42,55.01-109.86,42.25-32.56-11.72-36-49.68-63.38-50.7-24.7-.92-34.44,29.5-88.73,67.61-17.37,12.19-32.6,20.47-42.25,25.35-12.63,26.89-34.57,64.89-71.83,101.41-58.61,57.44-123.09,79.78-156.34,88.73-43.26-21.55-104.31-59.06-160.56-122.54-27.55-31.09-48.1-61.79-63.38-88.73-29.32-33.35-57.03-52.31-80.28-46.48-15.09,3.78-16.07,14.93-33.8,21.13-33.55,11.72-52.85-20.21-88.73-16.9-46.3,4.26-70.62,62.61-84.51,54.93-10.09-5.58,4.57-35.36-12.68-67.61-6.02-11.25-13.79-18.83-19.01-23.24Z"/>
    <path id="Rosto" class="cls-7" d="M3117.48,1417.45c-81.67-76.76-211.49-99.56-312.68-59.15-143.85,57.44-204.25,194.14-207.04,207.04-22.94,19.99-33.49,70.18-50.7,126.76-31.15,102.4,12.93,221.32,88.73,283.1,84.34,68.74,101.87,58.85,173.24,135.21,53.66,57.42,69.92,69.02,118.31,122.54,96.59,106.82,328.55,117.51,439.44,21.13,76.24-66.26,74.6-91.92,160.56-156.34,85.85-64.34,113.56-59.39,185.92-122.54,77.1-67.29,87.78-195.98,63.38-287.32-16.05-60.08-30.01-106.87-50.7-130.99-25.29-122.6-129.15-211.53-232.39-228.17-102.13-16.46-198.54,60.15-236.62,88.73-34.95,26.23-59.98,52.82-76.06,71.83-3.68-.84-7.35-1.67-11.03-2.51-9.91-18.88-26.21-44.76-52.35-69.32Z"/>
    <g id="Olhos">
      <g>
        <path class="cls-19" d="M2893.54,1590.69c-61.44-3.94-129.2,21.69-169.01,76.06-39.55,54.02-35.48,114.5-33.8,139.44,1.56,23.15,4.58,72.97,38.03,114.08,55.48,68.19,167.55,91.89,253.52,42.25,70.45-40.68,114.07-125.22,97.18-211.27-18.39-93.75-101.9-155.17-185.92-160.56Z"/>
        <g class="cls-22">
          <ellipse class="cls-21" cx="2931.57" cy="1846.32" rx="135.21" ry="124.65"/>
        </g>
      </g>
      <g>
        <path class="cls-19" d="M3421.71,1594.91c-101.43,22.73-194.47,133.89-164.79,245.07,27.77,104.02,146.38,145.98,228.17,139.44,16.26-1.3,76.97-6.16,122.54-54.93,43.1-46.13,45.46-102.45,46.48-126.76.95-22.66,3.88-92.55-46.48-147.89-49.49-54.38-126.37-68.28-185.92-54.93Z"/>
        <g class="cls-15">
          <ellipse class="cls-21" cx="3417.48" cy="1846.32" rx="135.21" ry="124.65"/>
        </g>
      </g>
      <path class="cls-7" d="M2931.61,1765.25c-1.45,6.3,30.57,9.39,55.26,40.36,19.14,24.02,38.87,55.96,45.21,55.5,8.79-.64,8.62-53.69-10.05-80.72-22.92-33.21-88.49-23.55-90.42-15.14Z"/>
      <path class="cls-7" d="M3387.92,1770.17c-.78,6.39,31.35,5.69,67.02,29.79,45.64,30.83,51.85,71.72,61.44,69.51,11.25-2.59,21.64-63.22-16.76-94.34-40.09-32.49-110.57-14.3-111.7-4.97Z"/>
    </g>
    <g id="Boca">
      <path class="cls-21" d="M3247.42,2159.34c-37.8-3.32-86-6.98-139.64,16.11-8.47,3.64-55.47,23.88-67.28,43.36,26.7,16.98,60.37,31.83,95.52,37.97,20.61-.14,43.29,5.44,63.99,1.38,17.95-3.52,35.14-16.33,51.89-22.59,25.82-16.42,50.46-40.22,68.14-63.54-13.83-7.51-43.3-10.12-72.6-12.69Z"/>
      <path class="cls-5" d="M2984.38,2154.77c3.1-13.16,27.54-9.66,164.79-29.58,128.41-18.64,183.14-37.52,194.37-21.13,18.32,26.74-49.47,115.11-114.08,143.66-107.93,47.7-253.12-58.8-245.07-92.96Z"/>
    </g>
    <g id="Sobrancelhas">
      <path class="cls-21" d="M3214.66,1709c-11.59-8.74-25.35-84.51,113.56-236.69,9.99-10.94,22.82-18.77,37.24-15.38,123.6,29.03,257.97,59.24,254.83,83.06-2.01,15.24-58.51,11.39-130.99,29.58-195.69,49.1-255.04,154.22-274.65,139.44Z"/>
      <path class="cls-21" d="M3119.13,1717.45c11.59-8.74,25.35-84.51-113.56-236.69-9.99-10.94-22.82-18.77-37.24-15.38-123.6,29.03-257.97,59.24-254.83,83.06,2.01,15.24,58.51,11.39,130.99,29.58,195.69,49.1,255.04,154.22,274.65,139.44Z"/>
    </g>
    <g id="Nariz">
      <path class="cls-6" d="M3083.68,2021.67c23.24,6.34,40.14,19.01,46.48,33.8"/>
      <path class="cls-6" d="M3252.69,2021.67c-23.24,6.34-40.14,19.01-46.48,33.8"/>
    </g>
    <g id="Mãozinha">
      <path class="cls-23" d="M3273.4,3122.88c33.77-77.19,48.82-41.61,83.53-142.81,12.82-37.38,23.37-138.76-7.12-168.9-7.72-7.62-65.58-40.74-79.27-48.17-9.94-5.39-24.55-11.77-35.57-17.18l2.98-5.24c8.08,3.74,19.68,6.84,27.84,10.88,26.32,13.02,50.9,29.45,78,41.44,6.01,1.49,4.84-2.72,4.19-6.29-3.36-18.46-17.83-65.71-37.43-74.5-9.34-4.19-21.47-3.87-31.68-2.32-8.09,1.23-34.31,11.47-43.9,15.08.4-2.45-.6-5.69,0-7.86,2.19-7.92,9.67-10.84,17.76-14.51,48.87-22.16,78.39-1.28,95.57,39.28,7.13,16.83,9.04,44,15.4,57.17,4.98,10.32,15.46,13.33,19.94,34.85,32.5,156-28.22,187.76-100.59,289.07"/>
      <path class="cls-10" d="M3234.97,2717.01c-.6,2.17.4,5.41,0,7.86-16.29,6.13-7.31,10.95,2.98,15.71l-2.98,5.24c-18.72-9.2-61.08-33.7-81.29-28.84-13.89,3.34-6.38,39.5-2.75,49.04,17.73,46.54,75.08,55.76,83.32,102.22,4.82,27.16-25.82,99.01-44.48,122.02-3.75,4.63-10.01,12.72-17.33,8.33.86-6.8,21.05-35.18,17.86-37.99-21.95,2.4-30.62-21.6-35.8-36.66l-17.75,30.17c-5.26,6.35-12.95,7.34-20.94,9.09v-13.1c9.56-1.3,13.78-12.99,17.18-20.26,14.66-31.4,28.39-97.5,21.42-130.22-2.24-10.52-17.46-28.29-20.01-42.65-2.42-13.62,5.73-33.8-15.61-37.35-3.51-4.22-3.51-8.88,0-13.1,17.02,11.19,17.94-3.38,29.62-6.68,14.45-4.09,34.9,2.2,48.54,7.37,12.48,4.73,21.98,18.6,38.03,9.78ZM3166.45,2813.92v100.83c0,6.55,17.49,36.49,29.92,28.92,8.3-5.06,21.37-55.29,21.01-65.61-.45-12.94-12.86-31.26-21.65-41.44-2.75-3.18-25.79-26.18-29.28-22.71Z"/>
      <path class="cls-17" d="M2996.64,2724.87l-2.98,10.48c-25.17-5.03-65.76,36.6-76.99,54.1-64.09,99.85,15.13,243.31,67.26,333.43-6.28,3.54-.11,12.02-9.65,9.65-16.83-27.41-67.78-91.27-81.3-121.41-35.57-79.32-34-160.18,14.86-234.66,12.06-18.39,34.19-48.69,58.83-53.05,14.26-2.52,18.05-.35,29.97,1.47Z"/>
      <path class="cls-14" d="M2996.64,2724.87c8.55,1.3,31.4,8.26,34.22,8.02,4.88-.42,14.83-13.7,20.99-18.4,14.52-11.08,34-16.58,53.43-15.93,15.58.52,12.6,7.39,13.5,7.98-3.51,4.22-3.51,8.88,0,13.1-23.95-3.98-51.05,1.59-65.52,19.64-11.75,14.66,1.45,27.17,5.05,42.69,10.15,43.71.23,102.71,15.84,140.59,1.61,3.9,14.48,21.41,17.86,23.58,6.39,4.09,16.05,5.03,23.78,3.98v13.1c-5.65,1.24-5.83,3.93-15.67,2.07-21.41-4.06-29.53-18.59-34.91-34.9-4.11-12.47-6.4,2.13-8.39,5.8-8.69,16.01-21.92,28.81-42.33,32.28-.58-5.25,2.4-9.33,5.96-13.1,14.34-15.21,27.86-20.05,32.05-43.84,4.95-28.08,3.39-126.86-12.82-149.85-11.67-16.54-20.52-18.04-40.2-22.38-2.96-.65-5.26-3.82-5.84-3.93l2.98-10.48Z"/>
      <path class="cls-20" d="M2948.97,2829.63c21.13,37.71,22.23,42.5,34.11,83.94,5.06,17.64,10.66,46.13,37.39,41.77-3.55,3.77-6.53,7.85-5.96,13.1-.85.14-1.82,2.55-6.48,2.18-15.12-1.2-31.5-25.22-35.89-36.95-8.52-22.77-14.12-86.28-26.14-104.04h2.98Z"/>
      <path class="cls-14" d="M2946,2829.63c-.54-.8-5.15-2.07-7.2-5.34-3.67-5.84-12.8-20.14-.27-20.88,1.82,0,8.58,22.86,10.46,26.22h-2.98Z"/>
    </g>
    <path class="cls-18" d="M2656.92,2697.73c34.1-44.55,48.18-76.94,59.15-71.83,21.38,9.96,7.29,122.63-59.15,321.13-8.45-8.45-4.23-28.68-4.23-42.25,0-69.52,4.23-137.52,4.23-207.04Z"/>
    <path class="cls-18" d="M3590.72,2887.87c4.23,12.68,8.45-87.32,10.56-114.08,2.11-26.76,4.23-53.52,6.34-80.28-24.18-61.03-39.67-90.61-46.48-88.73-10.86,3-3.81,119.9,29.58,283.1Z"/>
    <path class="cls-18" d="M4110.44,3158.29c-1.61-20.1-15.64-30.05-12.68-33.8,3.68-4.66,31.53,2.85,46.48,21.13,43.38,53.03-32.88,183.19-59.15,181.69-7.51-.43-21.13,0-29.57-12.67,0,0,0,0,0,0-6.84-4.79-8.04-13.81-8.45-16.9-3.15-23.69,19.61-42.66,42.25-80.28,4.94-8.21,10.34-16.39,14.76-28.2,3.76-10.07,7.29-19.52,6.37-30.96Z"/>
    <path class="cls-12" d="M3071,3978.01c-33.63,27.31-99.55,73.16-194.37,92.96-137.78,28.77-248.38-15.87-287.32-33.8-1.5,6.33-2.68,15.44,0,25.35,17.48,64.75,174.25,70.74,202.82,71.83,35.09,1.34,163.19,4.67,249.3-67.61,14.37-12.06,55.23-46.37,46.48-71.83-2.89-8.42-10.46-13.67-16.9-16.9Z"/>
    <path class="cls-12" d="M3172.41,4054.07c1.29-.19,2.53,1.58,2.79,1.93,6.3,8.5,81.33,55.96,183.12,74.13,64.72,11.55,204.76,36.54,261.97-33.8,24.15-29.69,31.42-73.75,46.48-71.83,9.4,1.2,16.19,19.61,16.9,33.8,2.78,55.49-84.64,101.11-101.41,109.86-168.19,87.76-406.84-4.5-414.08-67.61-.93-8.13-1.45-45.65,4.23-46.48Z"/>
    <path class="cls-12" d="M2627.34,4058.29c5.84-28.67,100.39-54.93,198.59-33.8,78.02,16.79,124.56,28.48,122.54,33.8-2.15,5.66-56.81-9.36-160.56-12.68-89.47-2.86-146.01,39.71-152.11,21.13-.53-1.62-8.71-7.19-8.45-8.45Z"/>
    <path class="cls-12" d="M2640.02,4058.29c12.08-44.31,35.18-94.49,21.13-101.41-7.6-3.74-19.23,6.69-21.13,8.45-19.4,18.01-27.96,52.55-8.45,92.96,4.23-1.41,4.23,1.41,8.45,0Z"/>
    <path class="cls-12" d="M3654.1,4070.97c-28.6-18.48-83.41-47.11-152.11-42.25-112.22,7.93-180.06,99.44-177.46,105.63,3.57,8.51-23.03,1.61-8.45,0,40.74-4.51,49.22-15.9,80.25-29.79,37.83-16.94,81.28-26.92,105.67-29.36,81.66-8.17,141.7,27.16,152.11,8.45,2.36-4.24,1.14-9.41,0-12.68Z"/>
    <path class="cls-12" d="M3641.42,4075.19c-22.22-5.39-31.47-22.09-55.07-48.79-21.34-24.14-37.52-37.35-33.66-44.17,1.66-2.93,6.95-4.57,12.68-6.34,5.07-1.57,9.51-2.01,12.68-2.11,4.62,9.53,12.76,24.93,25.35,42.25,23.87,32.84,50.23,53.98,46.48,59.15-.96,1.33-3.64,1.17-8.45,0Z"/>
    <path class="cls-9" d="M3163.96,1920.27c-1.4,30.99,4.23,59.15,0,84.51"/>
    <path class="cls-9" d="M3193.81,1941.39c-.84,18.59,2.54,35.49,0,50.7"/>
    <path class="cls-9" d="M3134.66,1941.39c-.84,18.59,2.54,35.49,0,50.7"/>
    <path class="cls-9" d="M3219.3,1949.84c-.56,12.39,1.69,23.66,0,33.8"/>
    <path class="cls-9" d="M3109.44,1949.84c-.56,12.39,1.69,23.66,0,33.8"/>
    <path class="cls-18" d="M2927.34,1011.82c174.95,114.64,213.7,155.93,207.04,169.01-6.46,12.7-59.73,6.74-88.73,0-15.61-3.63-28.46-8.46-38.03-12.68,8.45-1.41,16.9-2.82,25.35-4.23-9.38-15.31-19.23-30.81-29.58-46.48-25.17-38.1-50.72-73.27-76.06-105.63Z"/>
  </g>
  <g id="Balão_de_fala" data-name="Balão de fala">
    <path class="cls-2" d="M635.97,198.5c-411.13,49.71-468.96,258.7-501.11,316.66-42.88,77.3-61.64,160.27-64.54,243.08-11.66,332.51,48.98,563.17,378.53,608.92,447.03,62.05,701.27-39.51,1081.69-25.35,142.65,5.31,348.1,31.48,595.77,130.99-59.15-59.15-118.31-118.31-177.46-177.46,95.12-8.4,249.18,44.72,439.44,33.8,95.2-3.36,211.27,0,338.03-101.41,182.31-125.05,165.36-406.14,153.78-518.82-.59-5.78-1.11-10.28-1.46-13.36-13.09-114.7-49.42-212.14-91.02-290.51-66.79-125.82-187.56-227.75-331.94-241.97-489.96-48.24-1461.11-7.93-1819.71,35.44Z"/>
    <text class="cls-11" transform="translate(452.77 548.04) rotate(-2.04)"><tspan class="cls-13"><tspan x="0" y="0">Olá eu sou o Jonathan! </tspan></tspan><tspan class="cls-13"><tspan x="-23.69" y="212.96">Veja o gráfico ao lado e </tspan></tspan><tspan class="cls-13"><tspan x="-144.54" y="425.92">entenda a importância da </tspan></tspan><tspan class="cls-16" x="-117.93" y="638.87">LIBRAS </tspan><tspan class="cls-13" x="529.28" y="638.87">para o </tspan><tspan class="cls-16" x="1163.88" y="638.87">nosso país.</tspan></text>
  </g>
</svg>