<?xml version="1.0" encoding="UTF-8"?>
<svg id="Camada_1" data-name="Camada 1" xmlns="http://www.w3.org/2000/svg" viewBox="0 0 1920 1080">
  <defs>
    <style>
      .cls-1 {
        fill: #fe860c;
      }

      .cls-2 {
        fill: #fe9005;
      }

      .cls-3 {
        fill: #fe771a;
      }

      .cls-4 {
        fill: #fe8c03;
      }

      .cls-5 {
        fill: #fe9200;
      }

      .cls-6 {
        fill: #fe9766;
      }

      .cls-7 {
        fill: #fea600;
      }

      .cls-8 {
        fill: #fe8511;
      }

      .cls-9 {
        fill: #f9f9f9;
      }

      .cls-10 {
        fill: #fe6e1f;
      }

      .cls-11 {
        fill: #fe8417;
      }

      .cls-12 {
        fill: #f94722;
      }

      .cls-13 {
        fill: #fe6622;
      }

      .cls-14 {
        fill: #c8c8c8;
      }

      .cls-15 {
        fill: #fe9042;
      }

      .cls-16 {
        fill: #fe6721;
      }

      .cls-17 {
        fill: #fe9901;
      }

      .cls-18 {
        fill: #fe6020;
      }

      .cls-19 {
        fill: #fe801a;
      }

      .cls-20 {
        fill: #c7c7c7;
      }

      .cls-21 {
        fill: #fe9403;
      }

      .cls-22 {
        fill: #fe8950;
      }

      .cls-23 {
        fill: #c6c6c6;
      }

      .cls-24 {
        fill: #fe7219;
      }

      .cls-25 {
        fill: #fe7022;
      }

      .cls-26 {
        fill: #fe7c1d;
      }
    </style>
  </defs>
  <path class="cls-7" d="M493.8,318.56l-3.52,301.7c-2.55,6.01-39.11,9.37-46.92,8.64l-80.59-166.64-2.13,188.07h-48.62l8.73-282.88,45.97-8.49,76.38,158.23c1.95.14,4.2-10.99,4.2-11.61v-187.01h46.5Z"/>
  <path class="cls-24" d="M1026.49,318.56l-3.52,301.7c-2.57,6.04-39.14,9.31-46.97,8.68l-80.54-166.68-2.13,188.07h-48.62l8.73-282.88,45.97-8.49,80.59,158.24v-198.63h46.5Z"/>
  <path class="cls-5" d="M641.77,428.43c4.13-17.44,8.05-32.56-3.31-48.44-19.08-26.69-57.52-12.46-63.4,16.64-16.02,79.39,83.58,105.4,90.05,174.37,9.65,102.92-117.8,119.56-147.15,28.53,1.16-1.94,39.93-17.29,42.1-16.66,2.56.75,9.95,16.51,15.14,20.95,22.04,18.87,46.43.93,43.14-26.19-3.16-26.09-43.48-55.93-59.86-77.55-35.21-46.49-51.38-116.79-2.26-160.31,72.16-63.95,167.7,21.44,128.94,103.16l-43.4-14.5Z"/>
  <path class="cls-7" d="M290.88,316.45v46.49h-66.59c-2.31,0-3.03,5.16-3.28,7.29-1.14,9.73-.95,88.68,2.24,92.01l50.71-2.09v48.6l-50.73,2.11v101.43h69.76v48.6h-116.27s-4.22-344.44-4.22-344.44h118.37Z"/>
  <path class="cls-5" d="M825.67,322.79v48.6h-31.71l-2.11,238.78h33.82v48.6h-107.8l-4.22-46.48c4.6.11,28.6.68,29.71-3.42l4.1-237.48h-29.59l-4.22-46.47,112.03-2.13Z"/>
  <path class="cls-12" d="M1379.5,322.79v48.6h-31.71l-2.11,238.78h33.82v48.6h-107.8l-4.22-46.47c4.6.1,28.6.68,29.71-3.43l4.1-237.48h-29.59l-4.22-46.47,112.03-2.13Z"/>
  <path class="cls-17" d="M1738.85,627.08l-4.22-2.27c.48-5.12-.54-9.83-2.12-14.63,14.33-38.05,42.85-101.51,44.47-140.43.57-13.74-1.35-59.72-5.34-70.91-7.13-19.99-40.01-39.26-58.15-50.69-4.9-3.44-3.28-6.12,2.52-5.15h0c12.41,5.07,26.93,10.42,39.59,18.64,3.16-6.78-28.25-76.38-47.59-57.64l1.25-4.45c.1-3.51,1.51-7.03,4.23-10.57.58-.09,1.8-2.21,4.96-2.09,21.74.84,36.06,24.33,42.13,42.71,6.51,19.68,8.46,30.88,16.78,50.85,35.67,85.65-11.89,167.96-38.51,246.64Z"/>
  <path class="cls-23" d="M147.15,709.48l14.8.02-.02-16.92c18.52-1.32,17.09.58,14.8,16.91h16.93s0,14.81,0,14.81c-14.39-.64-21.38-2.37-19.04,14.79l19.04-.02c6.25,25.86-17.85,13.59-21.16,16.9-.83.84.62,17.58.02,21.15h-14.82s.02-21.15.02-21.15c-20.11-2.79-12.91,7.38-16.02,21.18l-13.59-.03c-.6-3.57.85-20.32.02-21.15-.76-.76-13.8.57-16.93.02v-14.81c14.39.64,21.39,2.37,19.05-14.79l-19.05.02v-16.93c3.57-.59,20.35.84,21.16.02,2.22-2.26-6.45-20.32,11.58-16.95,9.59,1.79,3.23,10.37,3.22,16.93Z"/>
  <path class="cls-23" d="M1159.66,733.8c-.29-2.14-2.04-9.28-6.31-7.39-3.85,14.53-7.7,29.14-6.36,44.38h-14.82s-2.11-65.53-2.11-65.53c7.5,1.21,19.42-4.43,16.94,6.37,8.32-7.87,19.9,3.63,22.18,3.63,3.23,0,10.19-10.54,23.82-4.19,6.21,2.89,13.18,21.02,13.18,26.96v34.87h-16.91c3.21-7,1.49-48.53-5.28-48.56-10.84,5.92-5.48,41.58-7.63,44.11-1,1.17-13.78,2.61-16.68,2.34-1.13-11.63,1.54-25.72,0-36.98Z"/>
  <path class="cls-23" d="M798.2,709.47c-22.54,6.7-13.32-1.49-22.36-10.37-5.62-5.52-9.35-5.25-15.59-1.12-21.49,14.22-16.26,87.31,13.17,78.77,12.5-3.63,4.7-25.91,24.78-20.78-2.47,58.19-62.78,43.09-67.37-9.75-4.48-51.58,39.27-102.18,67.37-36.75Z"/>
  <path class="cls-23" d="M244.36,715.82c-.7-.75,5.98-12.66-3-19.15-10.91-7.88-20.89,4.04-20.18,15.73,1.33,21.73,38.7,33.16,30.65,62.67-6.94,25.44-45.37,21.92-47.61-4.27,3.8,1.27,9.91-3.92,11.66-3.77,2.53.22,11.2,19.84,19.86,4.43,6.17-10.98-11.84-22.83-17.6-30.45-11.4-15.09-18.45-35.02-5.46-51.58,21.82-27.79,61.37.46,45.46,30.56-2.2-3.14-13.28-3.65-13.77-4.18Z"/>
  <path class="cls-18" d="M1466.16,346.04c.24,5.65-8.2,7.84-13.4,16.68-2.75,4.68-4.72,9.96-7.74,19.24-5.36,12.04-8.88,24.72-10.57,38.04-2.17,19.39-2.11,34.35-.57,47.7,4.48,38.72,15.26,57.44,19.59,76.98.47,2.14,1.86,8.77,6.34,15.93.9,1.43,1.69,2.52,2.11,3.09,1.43,6.32,3.24,18.1-6.34,12.68-31.53-58.78-42.8-105.89-27.48-173.28,2.01-7.34,4.83-14.39,8.46-21.13,6.05-17.36,12.44-29.55,23.25-44.38,2.81,1.85,6.19,4.75,6.34,8.45Z"/>
  <path class="cls-23" d="M944.05,682.02v44.38c8.48-3.55,20.84-4.02,27.53,3.12,1.08,1.15,6.29,10,6.29,10.61v34.87h-14.81c-1.67-1.65,5.38-50.44-14.7-32.65-9,7.97.46,23.92-2.19,34.77-3.76-.68-12.94,1.69-15.04-1.24-4.87-6.8-1.26-79.62-4-93.87h16.92Z"/>
  <path class="cls-23" d="M546.65,707.38c.55-.55,13.55-.45,15.5.02,1.63.4,1.36,4.2,2.63,4.25,2.22.1,6.42-2.36,10.42-2.37,9.76-.03,16.36,5.77,19.09,14.93.52,1.74,3.1,15.02,3.1,15.92v39.09h-14.8v-30.64c0-1.26-2.52-16.28-3.06-18.07-.49-1.62-3.29-6.16-4.34-6.18-6.69-.13-14.1,41.43-11.62,48.57h-16.92c1.75-8.55-2.32-63.2,0-65.52Z"/>
  <path class="cls-23" d="M870.07,707.38c.55-.55,13.55-.45,15.5.02,1.63.4,1.36,4.2,2.63,4.25,2.22.1,6.42-2.36,10.42-2.37,9.76-.03,16.36,5.77,19.09,14.93.52,1.74,3.1,15.02,3.1,15.92v39.09h-14.8v-30.64c0-1.26-2.52-16.28-3.06-18.07-.49-1.62-3.29-6.16-4.34-6.18-6.69-.13-14.1,41.43-11.62,48.57h-16.92c1.75-8.55-2.32-63.2,0-65.52Z"/>
  <path class="cls-23" d="M1271.69,707.38c.55-.55,13.55-.45,15.5.02,1.63.4,1.36,4.2,2.63,4.25,2.22.1,6.42-2.36,10.42-2.37,9.76-.03,16.36,5.77,19.09,14.93.52,1.74,3.1,15.02,3.1,15.92v39.09h-14.8v-30.64c0-1.26-2.52-16.28-3.06-18.07-.49-1.62-3.29-6.16-4.34-6.18-6.69-.13-14.1,41.43-11.62,48.57h-16.92c1.75-8.55-2.32-63.2,0-65.52Z"/>
  <path class="cls-23" d="M295.11,707.38c.55-.55,13.55-.45,15.5.02,1.63.4,1.36,4.2,2.63,4.25,2.22.1,6.42-2.36,10.42-2.37,9.76-.03,16.36,5.77,19.09,14.93.52,1.74,3.1,15.02,3.1,15.92v39.09h-14.8v-30.64c0-1.26-2.52-16.28-3.06-18.07-.49-1.62-3.29-6.16-4.34-6.18-6.69-.13-14.1,41.43-11.62,48.57h-16.92c1.75-8.55-2.32-63.2,0-65.52Z"/>
  <path class="cls-23" d="M1360.47,684.14v33.81h14.81s.03,13.58.03,13.58c-.4,2.75-14.83.47-14.83,1.21v48.6c-2.15-1.02-14.8-1.37-14.8-2.11v-46.49h-16.92s0-14.8,0-14.8h14.81s0-30.63,0-30.63c0-4.08,13.49-3.36,16.91-3.17Z"/>
  <path class="cls-20" d="M1098.36,728.49c-9,3.77-19.91-5.15-26.29-4.3-15.68,2.08-12.62,44,5.86,37.93,3.59-1.18,7.36-13.46,20.43-8.24-2.31,29.73-39.16,32.46-49.62,4.16-15.08-40.78,30.49-73.7,49.62-29.55Z"/>
  <path class="cls-1" d="M1612.02,343.92c-1.59-9.58,4.37-5.36,6.34,2.11,2.16,7.34,20.04,32.88,25.37,38.04,2.25,1.65,3.24,2.9,2.97,3.76-.4,1.28-3.63,1.67-9.69,1.17-.46.35-.92.69-1.38,1.04-1.23,22.62-2.29,50.19-.15,72.51,1.14,11.9,7.26,22.23,18.83,25.06,8.28,3.04,5.46,6.43-8.46,10.17l-4.22,2.51c-12.43-7.86-10.04-11.65-16.91-23.24-1.95-3.39-3.58-15.07-2.14-7.96l-2.09,1.62c-.6,2.33-1.65,7.15-2.11,8.45-3.27,2.45-4.4,7.25-5.36,11.84-.94,2.17-4,7-6,9-3.38,3.38-5.26,2.8-9.78,4.52-5.43,1.42-6.33.76-10.57,0-5.84-1.95-6-6.77,0-8.45,1.95-1.43,4.57-1.41,6.34,0,22.3-12.73,28.88-57.44,31.33-81.85.53-5.3.51-10.44.38-15.35"/>
  <path class="cls-21" d="M1732.5,610.18c7.72-1.05,6.21,11.28,6.34,16.91-6.9,20.39-15.78,44.36-20.53,65.06-6.74,29.39-7.99,61.36-11.2,91.3-3.11.18-3.72-7.57-3.96-9.75-4.74-43.6,1.85-86.62,16.66-127.6l4.23-14.79c2.83-7.01,5.79-14.06,8.46-21.13Z"/>
  <path class="cls-23" d="M491.7,715.82c3.94,18.82-11.08,28.1-21.14,41.23l21.14,3.18-2.12,14.78-40.17-2.14c-.81-.81,2.1-16.43,3.28-18.9,2.55-5.31,16.32-16.57,17.84-20.21,2.74-6.55-14.54-.18-18.08-5.2l1.18-14.86,38.07,2.12Z"/>
  <path class="cls-4" d="M1643.72,384.07c2.7,2.62,12.69,7.55,16.94,11.59,25.35,24.15,18.06,55.99,7.31,85.55-3.66,10.06-17.3,41.25-23.28,48.58-2.82,3.45-4.66,5.01-9.43,4.29.79-4.84,14.92-26.92,14.75-28.52-.14-1.34-6.43-4.02-8.41-5.27v-8.46c3.03-.61,10.91,1.09,12.57-.18.79-.61-.24-3.18.11-4.03l-.29.38c16.21-35.26,8.85-70.13-17-99l4.61-.7,2.11-4.23Z"/>
  <rect class="cls-20" x="398.68" y="686.25" width="16.91" height="95.09"/>
  <path class="cls-10" d="M1470.39,601.72c1.12-4.74,3.16-4.69,6.89-2.08,3.25,9.38,8,15.71,14.25,18.98,12.2,25.56,19.46,43.52,21.23,72.82,1.64,27.31,3.33,66.31-14.86,87.78-2.37-8.76,2.93-17.54,3.95-26.67,6.77-60.74-3.35-98.2-31.45-150.83Z"/>
  <path class="cls-26" d="M1551,339c4.25,7,6.4,23.85,7,29,1.33,6.37,2.67,12.75,4,19.12l2.73,57.29c1.44,15.9,4.61,48.52,24.27,49.59l3.99-.05c1.85.6,1.82,1.31,0,2.11-2.08.12-4.25.05-6.34,0-1.09,2.76-4.61,4.17-10.57,4.23-6.24-3.88-10.87-7.07-14.29-14.23-1.11-2.32-2.57-17.83-6.83-13.24-.64.69-3.94,12.92-6.74,17.59-2.94,4.88-7.66,10.67-12.3,14.11-2.33-2.12-3.74-4.94-4.23-8.45,6.25-4.57,19.02-23.76,19.02-30.64v-57.05c0-7.81,3.12-18.16,2.11-28.53l-2.11-10.57c-.23-1.37-1.57-6.2-2.11-8.45l-2.11-10.57c-.71-2.24-2.92-6.3-4.23-8.45,1.29-3.56,3.4-5.79,5.35-5.67.64.04,1.87.36,3.39,2.86Z"/>
  <path class="cls-2" d="M1717,287c6.66,7.4-.69,8.22-7.75,12.55l-1.25,4.45c-9.43,4.02-18.49,9.14-27.14,14.76,14.14,8.24,22.14,16.24,35.14,24.24l-2.52,5.15c-26.07-14.79-52.14-29.58-78.21-44.38,1.58-3.26,3.15-6.51,4.73-9.77,5.68,1.73,13.05,4.72,17.89,7.23,4.3,2.23,8.53,8.96,12.26,8.96,3.84,0,7.28-6.03,10.91-8.19,10.11-6.02,24.39-13.22,35.94-15Z"/>
  <path class="cls-25" d="M1531.69,496.07c6.83.27,6.45,3.24,4.23,8.45-9.7,7.2-15.1,8.12-25.22.9-22.24-15.86-22.6-74.77-33.97-102.33-1.82-4.37-1.12-5.77,2.11-4.23,4.98,6.66,15.84,33.48,18.01,42.23,3.58,14.41,6.75,75.55,34.83,54.98Z"/>
  <path class="cls-3" d="M1569.74,295.32c11.77-4.17,19.24,1.17,10.57,10.57l-3.31.11c-13.82,2.77-27.22,17.24-26.6,32.85l-3.91,2.96h-4.23c-7.79-12.88-17.53-16.57-31.71-19.02-6.24-.97-5.93-6.77,0-8.45,9.1,1.36,17.73,2.58,26.21,6.4,8.58-10.44,18.07-23.7,32.98-25.42Z"/>
  <path class="cls-8" d="M1601.62,313.67c-2.62-3.67-5.62-6.67-14.97-7.78-7.84-5.46-2.66-15.6,8.46-10.57,2.67,1.29,5.99,5.67,9.92,6,5.07.43,9.57-12.7,26.63-9.73,3.88.67,6.44,1.83,8.35,2.41l-4.73,9.77c-23.93-6.09-21.08,28.08-16.91,42.26-2.86-3.95-1.57-5.66-6.34-2.11"/>
  <path class="cls-20" d="M269.74,730.63h14.81s2.11,44.38,2.11,44.38c-7.53-.03-16.92,2.79-16.92-7.4v-36.98Z"/>
  <path class="cls-20" d="M424.05,730.63h14.81s2.11,44.38,2.11,44.38c-7.53-.03-16.92,2.79-16.92-7.4v-36.98Z"/>
  <path class="cls-20" d="M1106.81,730.63h14.81s2.11,44.38,2.11,44.38c-7.53-.03-16.92,2.79-16.92-7.4v-36.98Z"/>
  <path class="cls-16" d="M1491.53,618.63l-6.33,10.57c-.05-3.33-.12-7.05-1.43-10.14-.28-.66-5.99-8.66-6.28-9.41-.84-2.12-.35-8.22-7.09-7.92-4.66-8.73-10.14-16.67-14.8-25.36,5.19-1.76,3.96-8.39,6.34-12.68,9.24,18.27,20.59,36.09,29.59,54.94Z"/>
  <path class="cls-13" d="M1510.55,314.34v8.45c-22.15-3.83-30.78,8.1-44.39,23.24-.15-4.17-2.68-6.85-6.34-8.45,16.53-22.67,21.35-27.64,50.73-23.24Z"/>
  <path class="cls-14" d="M284.23,705.58c7.12,11.21-10.13,21.38-15.65,10.22s12.22-15.62,15.65-10.22Z"/>
  <path class="cls-14" d="M438.54,705.58c7.12,11.21-10.13,21.38-15.65,10.22-5.44-11.01,12.22-15.62,15.65-10.22Z"/>
  <path class="cls-14" d="M1121.3,705.58c7.12,11.21-10.13,21.38-15.65,10.22-5.44-11.01,12.22-15.62,15.65-10.22Z"/>
  <path class="cls-19" d="M1595.11,295.32h-8.47s.01,10.57.01,10.57h-6.34v-10.58c-3.44.25-7.16-.38-10.57.01,6.11-3.82,18.66-3.23,25.37,0Z"/>
  <path class="cls-13" d="M1434.46,419.99c1.33-11.86,1.7-29,10.57-38.04-4.07,12.51-6.14,25.65-10.57,38.04Z"/>
  <path class="cls-11" d="M1586.65,496.07v8.45c-6.5-1.17-5.49-1.07-10.57-4.23,2.83-9.68,2.84-4.41,10.57-4.23Z"/>
  <path class="cls-13" d="M1436.57,381.96c-1.4,4.01-2.83,7.12-3.53,9.06-1.64,4.57.71,10.53-4.93,12.07"/>
  <path class="cls-22" d="M1478.85,398.86l-2.11,4.23c-.54-1.3-7.43-9.68-6.34-10.54,4.55-.97,6.16,3.25,8.45,6.32Z"/>
  <path class="cls-6" d="M1470.37,377.73c.4.37,2.51,10.18,2.13,10.55-5.56,5.5-9.08-16.97-2.13-10.55Z"/>
  <path class="cls-11" d="M1597.22,504.52l10.57-8.45c-4.1,5.85-.51,5.82-10.57,8.45Z"/>
  <path class="cls-17" d="M1719.82,646.1c-1.37-6.33,2.36-10.18,4.23-14.79,1.51,6.23-2.65,10.43-4.23,14.79Z"/>
  <path class="cls-11" d="M1618.36,479.16c-1.59,4.51-3.39,8.37-5.36,11.84.57-4.53-.73-13.17,5.36-11.84Z"/>
  <path class="cls-15" d="M1552.83,379.85c-.1-1.08-1.61-7.49-2.11-10.57l2.11,10.57Z"/>
  <path class="cls-15" d="M1548.6,360.83c-.82-3.41-1.56-8.82-2.11-10.57l2.11,10.57Z"/>
  <path class="cls-24" d="M1188.9,309.41c-.61-2.89-2.49-3.06-4.94-3.51-13.04-2.42-28.71-1.83-42.03-2.26l-102.7,331.81,46.44,12.77,23.47-82.21,76.78-.33,21.26,110.07c.97,1.72,2.25,1.91,4.07,1.95,11.11.25,31.2-8.28,43.55-8.38l-65.89-359.91ZM1175.51,519.31h-49.67l32.76-107.79,19.22,103.47c1.05,1.57-1.61,4.33-2.31,4.33Z"/>
  <path class="cls-9" d="M159.82,726.41c-.72,13.18-.42,16.9-14.81,14.79v-14.81s14.81.02,14.81.02Z"/>
  <path class="cls-23" d="M641.76,684.13l-2.12,38.04c-41.66-12.91-48.05,49.92-9.5,52.93,11.14.87,5.46,1.25,8.78,2,1.99.45,12.92.47,13.39-.01,3.68-3.81,1.94-81.06,6.36-92.94l-16.91-.02ZM634.09,757.87c-14.66,5.09-18.4-17.34-7.73-20.53,15.99-4.78,15.13,17.96,7.73,20.53Z"/>
  <path class="cls-23" d="M524.19,705.55c-16.68-8.71-30.92,8.86-28.28,25.08,20.08,2.41,11.78-2.14,16.73-9.33,5.93-8.62,11.19,11.12,8.66,13.55-1.06,1.02-19.63-2.73-24.42,12.56-9.08,28.99,21.25,29.44,41.32,29.7v-47.55c0-7.5-6.97-20.34-14.01-24.02ZM523.38,757.02c-2.19,7.35-17.33,1.63-12.65-5.22,1.61-2.35,15.38-3.95,12.65,5.22Z"/>
  <path class="cls-23" d="M378.33,705.55c-16.68-8.71-30.92,8.86-28.28,25.08,20.08,2.41,11.78-2.14,16.73-9.33,5.93-8.62,11.19,11.12,8.66,13.55-1.06,1.02-19.63-2.73-24.42,12.56-9.08,28.99,21.25,29.44,41.32,29.7v-47.55c0-7.5-6.97-20.34-14.01-24.02ZM377.52,757.02c-2.19,7.35-17.33,1.63-12.65-5.22,1.61-2.35,15.38-3.95,12.65,5.22Z"/>
  <path class="cls-23" d="M1265.35,749.64c2-47.02-50.94-48.1-52.91-3.07-1.53,34.92,46.86,46.76,50.8,9.41-14.75-4.84-16.6,11.55-29.62,5.27-4.29-2.07-4.62-7.49-4.21-11.62h35.94ZM1231.55,733.82c3.33-6.79,15.04-6.42,14.77,3.13-2.02-.7-17.48,2.39-14.77-3.13Z"/>
  <path class="cls-23" d="M1039.17,749.64c2-47.02-50.94-48.1-52.91-3.07-1.53,34.92,46.86,46.76,50.8,9.41-14.75-4.84-16.6,11.55-29.62,5.27-4.29-2.07-4.62-7.49-4.21-11.62h35.93ZM1005.37,733.82c3.33-6.79,15.04-6.42,14.77,3.13-2.02-.7-17.48,2.39-14.77-3.13Z"/>
  <path class="cls-23" d="M1410.76,712.05c-38.61,2.99-36.06,69.11,11.63,58.28,25.97-5.9,27.07-61.28-11.63-58.28ZM1421.23,753.31c-15.59,14.7-30.71-16.32-14.22-23.68,16.59-7.4,24.52,13.97,14.22,23.68Z"/>
  <path class="cls-23" d="M831.57,712.05c-38.61,2.99-36.06,69.11,11.63,58.28,25.97-5.9,27.07-61.28-11.63-58.28ZM842.05,753.31c-15.59,14.7-30.71-16.32-14.22-23.68,16.59-7.4,24.52,13.97,14.22,23.68Z"/>
  <path class="cls-23" d="M692.06,712.05c-38.61,2.99-36.06,69.11,11.63,58.28,25.97-5.9,27.07-61.28-11.63-58.28ZM702.54,753.31c-15.59,14.7-30.71-16.32-14.22-23.68,16.59-7.4,24.52,13.97,14.22,23.68Z"/>
  <path class="cls-11" d="M1592.99,496.07v-2.11c9.63-1.15,13.96-13.38,16.99-22.11,7.42-21.38,13.23-50.58,14.72-72.98,3.66,19.75-4.57,49.94-11.17,70.19-3.88,11.92-6.71,26.21-20.54,27.02Z"/>
  <path class="cls-8" d="M1631.65,291.59c3.88.67,6.44,1.83,8.35,2.41l-4.73,9.77"/>
</svg>