<?xml version="1.0" encoding="UTF-8"?>
<svg id="Camada_1" data-name="Camada 1" xmlns="http://www.w3.org/2000/svg" viewBox="0 0 1034.04 1080">
  <defs>
    <style>
      .cls-1 {
        fill: #39f05c;
      }

      .cls-2 {
        fill: #3df25f;
      }

      .cls-3 {
        fill: #46f767;
      }

      .cls-4 {
        fill: #25e44c;
      }

      .cls-5 {
        fill: #33ec57;
      }

      .cls-6 {
        fill: #0dd738;
      }

      .cls-7 {
        fill: #43f564;
      }

      .cls-8 {
        fill: #1de045;
      }

      .cls-9 {
        fill: #04d130;
      }

      .cls-10 {
        fill: #02d02e;
      }

      .cls-11 {
        fill: #23e349;
      }

      .cls-12 {
        fill: #22e249;
      }

      .cls-13 {
        fill: #2be750;
      }

      .cls-14 {
        fill: #34ec57;
      }

      .cls-15 {
        fill: #3af05c;
      }

      .cls-16 {
        fill: #20e147;
      }

      .cls-17 {
        fill: #0fd739;
      }

      .cls-18 {
        fill: #40f362;
      }

      .cls-19 {
        fill: #2eea53;
      }

      .cls-20 {
        fill: #09d434;
      }

      .cls-21 {
        fill: #49f96a;
      }

      .cls-22 {
        fill: #26e44c;
      }

      .cls-23 {
        fill: #0fd839;
      }

      .cls-24 {
        fill: #28e64e;
      }

      .cls-25 {
        fill: #2be851;
      }

      .cls-26 {
        fill: #0bd536;
      }

      .cls-27 {
        fill: #11d93b;
      }

      .cls-28 {
        fill: #2fea53;
      }

      .cls-29 {
        fill: #19dd42;
      }

      .cls-30 {
        fill: #31eb56;
      }

      .cls-31 {
        fill: #36ee5a;
      }

      .cls-32 {
        fill: #37ee5a;
      }

      .cls-33 {
        fill: #2ee953;
      }

      .cls-34 {
        fill: #1ade42;
      }

      .cls-35 {
        fill: #42f564;
      }

      .cls-36 {
        fill: #1ddf45;
      }

      .cls-37 {
        fill: #4cfb6d;
      }

      .cls-38 {
        fill: #1cdf44;
      }

      .cls-39 {
        fill: #4ffc6f;
      }

      .cls-40 {
        fill: #12d93b;
      }

      .cls-41 {
        fill: #0dd637;
      }

      .cls-42 {
        fill: #31eb55;
      }

      .cls-43 {
        fill: #f2921d;
      }

      .cls-44 {
        fill: #fefefe;
      }

      .cls-45 {
        fill: #06d332;
      }

      .cls-46 {
        fill: #00cf2d;
      }

      .cls-47 {
        fill: #2be850;
      }

      .cls-48 {
        fill: #14da3d;
      }

      .cls-49 {
        fill: #23e34a;
      }

      .cls-50 {
        fill: #14db3d;
      }

      .cls-51 {
        fill: #18dd40;
      }

      .cls-52 {
        fill: #17dc40;
      }

      .cls-53 {
        fill: #34ed58;
      }
    </style>
  </defs>
  <circle class="cls-43" cx="519.32" cy="536.59" r="426.64"/>
  <g>
    <path class="cls-3" d="M754.52,325.66c6,7.64,7.92,10.7,12.51,19.33l-.8,2.27c-72.7-.07-145.21-.07-217.53,0-7.34,1.35-15.07,1.4-23.19.17-9.02.81-17.59.38-25.7-1.3l-25.33,2.02c-67.51-.67-134.8-1.34-201.85-2.01l-1.38-2.29c4.1-7.63,7.38-11.68,12.51-18.19l3.69-2.27h462.82l4.26,2.27Z"/>
    <path class="cls-45" d="M761.34,739.57c-5.57,8.5-8.72,13.05-15.92,20.47-2.07,1.72-3.6,1.16-5.58-.17l-441.1.1c-2.25,1.41-4.21,1.43-5.89.07-7.17-7.47-10.33-11.94-15.92-20.47l1.09-2.27h481.9l1.42,2.27Z"/>
    <path class="cls-9" d="M745.42,760.04c-8.4,8.65-13.97,12.86-23.88,19.33l-7.7,2.27h-389.42l-7.7-2.27c-10.32-6.7-15.21-10.31-23.88-19.33l5.06-2.34h442.47l5.06,2.34Z"/>
    <path class="cls-20" d="M356.52,719.1c35.59-.97,71.68-1.72,108.28-2.23l22.49,2.23,3.27-2.2c16.31,2.11,32.58,2.67,48.81,1.68l3.64,1.66c21.14-.93,42.32-1.08,63.53-.46,53.76-2.1,107.29-2.27,160.6-.52,3.01.49,4.39,1.15,3.3,4.39-3.14,7.11-4.99,9.65-9.1,15.92h-484.42c-4.11-6.28-5.87-8.96-9.1-15.92-1-3.32-.44-4.21,3.04-4.54,19.83-.49,39.7-.29,59.59.61-.16,4.49.94,6.18,3.32,5.06,5.53-5.19,15.32-7.38,22.74-5.69Z"/>
    <path class="cls-21" d="M736.32,306.33c7.79,6.82,11.78,11.17,18.19,19.33h-470.77c6.46-8.2,10.29-12.45,18.19-19.33l5.53-2.27h423.31l5.53,2.27Z"/>
    <path class="cls-37" d="M329.23,288.13l10.27-2.27c120.06-.03,240.11-.01,360.14.06l9.39,2.21c11.9,5.99,17.19,9.35,27.29,18.19h-434.38c9.93-8.65,15.54-12.3,27.29-18.19Z"/>
    <path class="cls-10" d="M721.54,779.37c-11.97,7.81-21.06,13.12-35.25,17.06h-334.31c-14.29-4.09-23.2-9.23-35.25-17.06h404.82Z"/>
    <path class="cls-39" d="M709.03,288.13h-379.8c15.45-7.75,28.68-12.62,46.2-14.64,89,.57,179.26-5.1,268.27-1.34,25.8,1.09,42.41,4.43,65.33,15.97Z"/>
    <path class="cls-7" d="M499.8,346.13l-4.99,2.85c-18.3,2.36-36.15,7.54-52.94,15.15l-5.74.19c-56.94-.06-114.09-.06-171.44,0l-1.4-2.27c2.46-6.65,4.59-11.92,7.96-18.19l228.56,2.27Z"/>
    <path class="cls-35" d="M767.03,344.99c3.72,7,6.39,11.61,9.1,19.33l-.8,2.27h-163.75l-8.29-2.27-3.71.75c-15.39-6.92-31.68-11.94-48.25-15.06l-2.62-2.74,5.06-2.34,213.27.07Z"/>
    <path class="cls-26" d="M598.73,704.32l9.07-2.22c56.12.36,112.14.71,168.08,1.07l1.38,2.28c-2.12,6.98-3.93,11.64-6.82,18.19-1.49-2.3-3.85-2.18-6.21-2.33-72.29-4.41-148.89,4.36-221.22-1.08l4.54-3.13c15.58-2.88,31.05-6.72,45.69-12.85l5.49.06Z"/>
    <path class="cls-23" d="M782.95,666.8c.61,2.45.61,5.11,0,7.96-.32,7.13-1.02,10.34-2.27,17.06-10.06-1.97-20.48-2.72-31.27-2.24-40.42,1.94-80.35,1.98-119.8.11l-1.31-2.42.35-3.06c7.61-5.7,14.77-12.04,21.58-18.68l3.09.13,4.73-2.23c41.2.36,82.38.72,123.53,1.08l1.37,2.29Z"/>
    <path class="cls-18" d="M436.12,364.32c-.52,1.37-1.14,2.84-2.37,3.73-4.62,3.37-16.56,10.59-21.66,12.99-1.37.65-2.94.54-4.4.34l-6.04,2.23c-47.61-.36-95.17-.72-142.69-1.08l-1.38-2.28c1.4-6.73,3.33-11.86,5.69-18.19l167.79-.07,5.06,2.34Z"/>
    <path class="cls-41" d="M628.3,687.26l11.89,1.19c44.74,2.52,93.43-3.53,137.69-.05,3.49.27,2.93-.56,2.79,3.41-1.09,5.83-1.73,8.1-3.41,13.65l-178.53-1.14,1.8-3.37c8.28-4.06,16.29-8.68,23.95-13.82l3.82.13Z"/>
    <path class="cls-15" d="M782.95,397.3c7.98,87.31-3.63,182.94,1.16,271.22l-1.16,6.24c.12-2.64-.07-5.32,0-7.96-3.27-4.24-3.37-10.64,0-14.78-3.22-6.11-3.3-13.25,0-19.33-3.09-6.36-3.14-12.98,0-19.33-2.82-5.01-2.84-9.78,0-14.78-2.81-6.89-2.84-13.59,0-20.47-2.22-6.42-2.24-12.92,0-19.33-2.23-5.66-2.23-11.4,0-17.06-2.24-6.03-2.23-12.16,0-18.19-2.24-5.65-2.23-11.4,0-17.06-2.24-6.79-2.23-13.68,0-20.47-2.24-6.41-2.22-12.91,0-19.33-2.24-4.51-2.22-9.13,0-13.65-3.13-5.97-3.09-12.21,0-18.19-2.69-4.92-2.62-10.47-2.09-15.9l-108.67,1.08-4.08-2.23-2.82.08-13.55-15.5.45-2.78c-2.36-3.04-1.93-4.38,1.93-4.67,39.25-.38,79.19-.29,118.71.35,3.47.06,6.84,1.06,10.13,2.05Z"/>
    <path class="cls-15" d="M255.32,397.3c3.29-.99,6.67-2,10.13-2.05,39.72-.61,79.98-.75,119.35-.34,3.38.5,3.2,2.18,1.29,4.67l.3,2.93-13.28,15.18-2.94.09c-1.28,1.08-2.64,1.82-4.08,2.23l-108.67-1.08c.49,5.81.64,11.73-2.09,17.04,2.8,5.76,2.84,11.31,0,17.06,2.81,5.01,2.83,9.78,0,14.78,2.22,7.17,2.24,14.44,0,21.61,2.23,6.42,2.24,12.92,0,19.33,2.23,5.27,2.24,10.65,0,15.92,2.23,6.04,2.24,12.16,0,18.19,2.23,6.04,2.22,12.16,0,18.19,2.83,6.88,2.81,13.58,0,20.47,2.84,5.75,2.81,11.3,0,17.06,2.84,5,2.81,9.77,0,14.78,3.14,5.97,3.09,12.21,0,18.19,3.31,6.47,3.21,13.96,0,20.47,3.59,5.94,3.28,16.58,0,22.74l-1.19-2.78c3.33-87.83-4.26-178.72,0-266.2.15-3.07.93-5.6,1.19-8.48Z"/>
    <path class="cls-18" d="M776.12,364.32c1.83,5.23,3.43,10.48,4.55,15.92l-2.35,1.37c-48.82-2.01-99.25-2.8-147.75-.23l-2.96.67c-7.58-5.34-15.41-10.43-23.59-14.8l-.73-2.92h172.84Z"/>
    <path class="cls-2" d="M780.67,380.24c1.27,6.16,1.71,10.86,2.27,17.06-41.99,1.24-84.94-1.66-126.84,0-2.19.09-4.56-1.17-3.93,2.27l-3.01.24-18.33-15.41-.26-3.02c.8-2.61,2.94-2.2,5.06-2.34,42.03-2.83,96.19-1.26,138.85.02,2.16.07,4.3-.11,6.2,1.18Z"/>
    <path class="cls-46" d="M686.29,796.43c-10.15,2.82-20.81,4.13-31.22,5.73-87.76-.37-175.55.33-263.29-.05l-12.51-1.14c-9.82-.39-17.86-1.85-27.29-4.55l6.21-2.33h321.9l6.21,2.33Z"/>
    <path class="cls-2" d="M407.7,381.38l-.24,3.01-18.31,15.4-3.05-.21c.63-3.44-1.74-2.19-3.93-2.27-41.9-1.66-84.85,1.24-126.84,0,.57-6.2,1-10.89,2.27-17.06l150.1,1.14Z"/>
    <path class="cls-6" d="M255.32,674.76c1.38-.55,2.77-1.05,4.2-1.41s2.79-.68,4.18-.69c25.94-.31,52.22-.59,77.89-.29,1.68.09,2.11,1.65,1.29,4.67.77,9.44-1.57,18.28-6.82,26.15-23.74-.74-49.51-1.3-73.84.23l-2.35-1.37c-2.83-10.49-4.06-16.29-4.55-27.29Z"/>
    <path class="cls-26" d="M336.06,703.18l1.69,2.55c-2.1,6.67-3.42,13.02-3.96,19.05-.64.18-1.5,1.92-3.41,1.14l-.66-4.58c-18.67.9-38.28-1.11-56.83-.04-2.12.12-4.26-.26-5.06,2.34-3.77-8.11-5.61-12.88-7.96-21.61,1.89-1.29,4.03-1.12,6.2-1.18,19.58-.59,44.53-1.35,63.78,0,2.36.16,4.72,0,6.21,2.33Z"/>
    <path class="cls-10" d="M391.78,802.11c-3.93-.02-9.51.95-12.51-1.14,3.99.16,9.46-1.06,12.51,1.14Z"/>
    <path class="cls-44" d="M548.7,347.26c16.76,2.6,39.37,9.57,54.58,17.06,8.07,3.97,19.93,11.68,27.29,17.06,6.56,4.79,15.87,12.49,21.61,18.19,4.74,4.71,11.84,12.88,15.92,18.19,4.67,1.08,11.88,11.16,13.56,15.56l-1.06,2.63c3.51-.8,11.47,15.28,11.33,16.29-1.43.77-1.64,1.75-1.1,3.04,4.13-.23,8.1,10.63,5.69,13.65,3.33-1.27,7.67,15.62,7.33,16.52-1.75.48-2.13,1.38-1.65,2.81,4.35,2.19,6.73,15.78,3.41,19.33,3.7,4.23,4.52,11.69,1.68,16.34.35,7.85.17,15.67-.54,23.46,3.14,3.03,2.6,9.16-1.14,11.37,2.54,6,1.16,13.54-3.41,18.19,2.36,6.22-1.43,18.85-6.82,22.74,2.61,3.56-1.48,12.77-5.69,13.65,2.62,2.38-4.99,16.46-6.8,18.01l-3.44,1.32,1.09,2.54c-2.07,4.9-9.55,15.33-14.74,16.79,1.23,5.18-7.31,12.47-12.51,13.65-6.7,6.78-17.29,16.16-25.02,21.61-8.67,6.11-19.94,12.6-29.57,17.06-17.52,8.11-36.74,12.62-55.72,15.92-18.65,3.85-37.74-.97-55.72-1.14-20.47-.55-39.34-8.56-57.55-17.22l-57.98,15.47c-4.99,1.31-10.09,1.95-15.24,1.75-7.52,1.98-15.25,3.55-22.74,5.69-3.41.57-2.36-1.48-1.99-3.68.89-5.32,2.88-12.51,4.27-17.93,2.22-8.69,4.57-17.45,6.82-26.15-1.16-7.92.85-15.25,5.69-21.61-1.21-7.22.41-16.77,5.69-22.74-1.86-.57-1.89-2.09-.12-4.57-4.29-4.87-6.15-9.79-5.57-14.76-4.75-2.2-7.54-8.81-5.69-13.65-5.16-3.95-7.69-12.01-5.69-18.19-4.86-4.79-6.98-14.08-4.55-20.47-3.72-.37-4.18-10.95-1.14-12.51l-.76-5.66c-2.3-1.76-3.48-8.52-.37-10.26l.66-7.26c-2.32-1.79-2.8-10.62.48-12.07-.5-6.34-.56-12.88.8-20.02l2.61-1.58c-1.62-3.04-1.41-6.73.63-11.1l3.53-10.93,2.67-.72c-2.93-2.63,1.79-13.79,5.69-13.65l-1.36-2.45c.56-2.86,7.06-15.32,10.46-14.61-.68-3.54.75-7.26,4.3-11.16,2.23-4.84,5.35-7.94,9.35-9.3,4.21-5.53,10.97-13.31,15.92-18.19,5.93-5.86,15.13-13.48,21.61-18.19,8.62-6.27,18.84-12.38,28.43-17.06,19.86-9.69,41.65-16.05,63.68-18.19,16.62-1.62,32.39-1.42,48.9,1.14Z"/>
    <path class="cls-26" d="M487.29,719.1c-41.01-.38-83.13,2.13-124.56,1.17-2.16-.05-4.42.53-6.21-1.17,24.42-6.44,48.69-13.69,73.33-19.41,18.52,8.28,37.29,15.92,57.44,19.41Z"/>
    <path class="cls-40" d="M782.95,652.01c-.06,4.91.12,9.87,0,14.78l-129.63-1.14c3.77-3.81,9.2-9.57,12.51-13.65l4.08-2.27h111.67l1.38,2.27Z"/>
    <path class="cls-48" d="M782.95,632.68c-.05,6.43.08,12.9,0,19.33h-117.12c4.06-5,10.26-13.83,13.65-19.33l3.04-2.27h99.05l1.39,2.27Z"/>
    <path class="cls-32" d="M668.1,417.77l114.86-1.14c.03,6.05-.05,12.15,0,18.2l-.75,2.28c-32.84.36-65.69.73-98.55,1.1l-3.03-2.24c-3.16-5.27-8.73-13.28-12.51-18.19Z"/>
    <path class="cls-51" d="M782.95,613.35c-.03,6.43.05,12.9,0,19.33h-103.48c3.31-5.38,7.58-13.55,10.23-19.33l2.13-2.27h89.73l1.38,2.27Z"/>
    <path class="cls-14" d="M782.95,434.82c.05,6.05-.03,12.14,0,18.19l-4.61,1.61c-30.62.57-59.78.79-87.49.66-2.39-5.31-7.2-14.26-10.23-19.33l102.34-1.14Z"/>
    <path class="cls-38" d="M782.95,578.1c-.02,6.81.03,13.66,0,20.47l-1.03,2.29c-28.37.37-56.75.74-85.13,1.11l-1.4-2.26c2.6-7.05,5.11-15.41,6.82-22.74l1.08-2.26c26.1.37,52.21.74,78.33,1.1l1.33,2.29Z"/>
    <path class="cls-28" d="M782.95,466.66c.02,6.43,0,12.9,0,19.33l-4.24,1.6c-26.92.6-52.42.82-76.5.67-1.26-5.31-3.84-14.2-5.69-19.33l-.42-3.29c.92-3.92,70.53-1.41,80.35-1.04,2.3.09,4.45,1.08,6.49,2.06Z"/>
    <path class="cls-25" d="M782.95,485.99c.01,6.81,0,13.66,0,20.47l-1.01,2.29c-24.97.37-49.94.73-74.93,1.1l-1.39-2.25c-.69-5.71-2.09-13.75-3.41-19.33-.63-3.43,1.74-2.2,3.93-2.27,25.55-.85,51.26.64,76.81,0Z"/>
    <path class="cls-16" d="M782.95,558.77c-.01,6.43.02,12.9,0,19.33l-80.74-1.14c1.4-5.97,2.51-12.13,3.41-18.19l1.06-2.27h74.88l1.38,2.27Z"/>
    <path class="cls-22" d="M782.95,523.52c0,6.05,0,12.14,0,18.19l-1.05,2.27h-72.63l-1.36-2.27c-.7-6.57-.83-13.22-.38-19.93,24.6-.66,49.29-.84,74.07-.54l1.36,2.27Z"/>
    <path class="cls-34" d="M782.95,598.57c-.02,4.92.02,9.87,0,14.78h-93.24c1.89-4.1,4.13-9.43,5.69-13.65l87.56-1.14Z"/>
    <path class="cls-24" d="M782.95,506.46c0,5.67,0,11.38,0,17.06h-75.06c-.29,6.01.41,12.19,0,18.19,3.38,1.24,2.32,5.51-1.14,5.69,0-13.35.46-26.56-1.14-39.8l77.32-1.14Z"/>
    <path class="cls-49" d="M782.95,541.71c0,5.67.01,11.38,0,17.06h-77.32c.55-3.7.78-7.63,1.14-11.37.12-1.21.96-3.08,1.14-5.69h75.05Z"/>
    <path class="cls-42" d="M782.95,453.02c.02,4.54-.01,9.11,0,13.65-26.72,1.21-54.8-1.59-81.37-.07-2.12.12-4.26-.25-5.06,2.34-1.27-3.55-4.07-10.04-5.69-13.65-.63-3.43,1.74-2.2,3.93-2.27,29.33-.98,58.85.73,88.18,0Z"/>
    <path class="cls-31" d="M370.17,417.77c-4.42,5.81-9.99,14.16-13.65,20.47-31.92.14-64.05-.08-96.37-.66l-4.83-1.62c.05-6.43-.03-12.91,0-19.34l114.86,1.14Z"/>
    <path class="cls-27" d="M255.32,652.01l5.8-2.01c25.41-.33,50.81-.58,76.22-.76,9.36-1.15,13.1.91,11.22,6.19-1.83,7.24-3.82,14.41-5.69,21.61.63-3.44-1.74-2.19-3.93-2.27-27.79-1.1-55.83.82-83.63,0-.33-7.53.1-15.2,0-22.74Z"/>
    <path class="cls-50" d="M354.25,632.68c-1.61,7.86-3.74,15.05-5.69,22.74.14-3.98.7-3.14-2.79-3.41-29.11-2.29-61.06,1.71-90.46,0-.09-6.81.05-13.66,0-20.47l.81-2.27c32.25.37,64.51.74,96.78,1.11l1.34,2.29Z"/>
    <path class="cls-19" d="M341.74,468.94c-2.16,6.02-5.49,16.64-6.82,22.74l-71.22.14c-2.93-.32-5.72-1.13-8.37-2.41.01-7.19-.02-14.42,0-21.61l1.09-2.26c27.99.37,55.98.74,83.98,1.11l1.35,2.29Z"/>
    <path class="cls-51" d="M348.56,613.35c2.09,4.72,4.63,9.29,7.48,13.61,1.24,2.28-1.55,4.53-1.8,5.73l-98.93-1.14c-.05-6.05.03-12.14,0-18.19l.79-2.27h90.32l2.13,2.27Z"/>
    <path class="cls-5" d="M255.32,435.96c32.36.81,64.92-1.08,97.28,0,2.19.07,4.56-1.16,3.93,2.27-2.77,4.77-6.87,12.17-9.1,17.06-1.76.88-3.97.89-6.6,0-27.51.03-54.95-.18-82.34-.63l-3.17-1.65c.03-5.67-.04-11.38,0-17.06Z"/>
    <path class="cls-16" d="M332.64,561.04c1.21,6.8,2.84,13.77,4.55,20.47l-1.06,2.27h-79.43l-1.38-2.27c-.02-6.81.02-13.66,0-20.47l1.06-2.27h74.88l1.38,2.27Z"/>
    <path class="cls-13" d="M255.32,489.41c25.17.63,50.5-.84,75.67,0,2.19.07,4.56-1.16,3.93,2.27-1.46,6.7-1.07,15.02-3.41,21.61-1.2-.39-2.29-.99-2.51-2.28h-72.32s-1.36-2.27-1.36-2.27c0-6.43,0-12.9,0-19.33Z"/>
    <path class="cls-38" d="M337.19,581.51c1.57,6.15,3.5,12.24,5.69,18.19-.11.9-.45,2.25-1.09,2.26-24.93.39-53.83.55-78.61-1.02-4.24.73-6.86-.06-7.87-2.38-.02-5.67.02-11.38,0-17.06h81.87Z"/>
    <path class="cls-11" d="M255.32,542.85c.09-.9.42-2.26,1.04-2.27,9.24-.29,69.57-1.92,72.68-.04,1.82,1.55,2.64,4.22,2.47,8,.77,3.64.5,8.95,1.14,12.51h-77.32c-.02-6.05,0-12.14,0-18.19Z"/>
    <path class="cls-4" d="M255.32,524.66l1.05-2.27h72.64c2.22,1.99,2.67,5.41,1.36,10.23.6,5.25,1.88,10.43,1.14,15.92-.19-.9-1.48-5.68-1.78-5.73l-74.41.04c0-6.05,0-12.14,0-18.19Z"/>
    <path class="cls-34" d="M342.88,599.71c1.68,4.57,3.72,9.19,5.69,13.65h-93.24c-.03-4.92.02-9.87,0-14.78l87.56,1.14Z"/>
    <path class="cls-42" d="M347.43,455.29c-1.77,3.88-4.27,9.71-5.69,13.65l-86.42-1.14c.01-4.92-.02-9.87,0-14.78,27.79,1.31,57.14-1.74,84.75-.04,2.59.16,5.44.3,7.35,2.32Z"/>
    <path class="cls-24" d="M255.32,508.74h76.19c.08,1.5-.1,3.04,0,4.55.35,5.85.69,14.07-1.14,19.33-.29-2.55.21-5.38,0-7.97h-75.06c0-5.29,0-10.62,0-15.91Z"/>
    <path class="cls-52" d="M529.37,614.49c.76-2.36,2.02-2.44,4.12-1.81l23.73,7.38c11.16,3.06,23.27,1.09,33.57-4.01l3.4.73,6.2-1.55c15.74.6,31.44.7,47.1.29,2.8.05,3.22,1.61,1.28,4.67-4.6,6.95-7.33,9.89-12.51,15.92l-4.22,2.24c-80.41-.74-160.8-1.48-241.15-2.22l-1.38-2.29c1.72-7.4,2.4-8.53-1.14-14.78l-1.19-4.66c47.44-3.27,94.84-3.24,142.19.11Z"/>
    <path class="cls-53" d="M638.53,432.55c5.87,6.9,9,11.7,13.65,19.33l-.8,2.27-175.27-.07c-2.58,1.64-4.54,1.66-5.88.07-2.59-.19-5.12-2.02-7.6-5.48-3.28-1.72-16.66,3.56-20.53,5.36l-2.58-1.02c-16.99.12-34.06-.1-51.23-.66l-2.22-1.62c4.05-6.54,8.7-12.33,13.65-18.19l4.2-2.27h230.4l4.2,2.27Z"/>
    <path class="cls-40" d="M619.2,653.15c-7.91,6.52-13.67,10.85-22.74,15.92-51.35-.34-102.9-.34-154.65,0-3.02-1.47-6.08-3.64-9.51-3.35l-55.3,14.72c-1.05-1.12,6.99-25.79,7.95-29.56l1.39-2.27,224.73-.04c4.66.16,7.37,1.69,8.12,4.59Z"/>
    <path class="cls-50" d="M636.26,636.09c-6.67,7.77-9,10.41-17.06,17.06l-7.35-2.32-226.89.04c1.42-5.58,3.32-11.78,4.55-17.06l246.76,2.27Z"/>
    <path class="cls-1" d="M440.67,398.43l8.24-2.25c46.54-.03,93.09-.03,139.64-.02l9.04,2.27c11.26,6.54,16.6,10.67,26.15,19.33l-1.5,2.56c-67.16,1.94-134.74,1.91-202.76-.08l-6.1-1.34c7.21-8.85,17.53-14.77,27.29-20.47Z"/>
    <path class="cls-4" d="M674.92,523.52c.54,7.81.51,10.38,0,18.19l-.79,2.27-178.67-.04c-3.31,1.58-6.03,1.6-8.16.04-6.63-2-13.82-12.44-13.65-19.33l.79-2.28c66.34-.37,132.7-.75,199.07-1.12l1.42,2.27Z"/>
    <path class="cls-33" d="M662.41,471.21c2.8,6.44,4.84,11.37,6.82,18.19l-.79,2.27c-59.67-.06-118.91-.06-177.74,0l-2.18-1.39c-1.12-5.61-3.8-10.77-8.04-15.49l1.13-2.44c-2.2-2.02,3.11-4.53,4.74-4.54,57.56-.47,115.58-.49,172.85.05l3.22,3.36Z"/>
    <path class="cls-24" d="M477.06,506.46l4.19-2.28c63.55-.19,127.04-.13,190.47.21l2.06,5.48c.74,4.98.8,8.77,1.14,13.65l-201.27,1.14c-4.48,2.45-7.05-5.69-6.47-9.79.54-3.78,5.93-9.91,9.89-8.41Z"/>
    <path class="cls-31" d="M623.75,417.77c5.84,5.29,9.52,8.6,14.78,14.78h-238.8c3.49-4.14,8.64-12.07,13.65-13.65,66.68-2.2,135.35,2.9,201.89.05,2.95-.13,5.61-.75,8.48-1.19Z"/>
    <path class="cls-11" d="M674.92,541.71c-.49,7.57-.97,11.88-2.27,19.33l-1.92,1.17c-30.45-1.06-60.89-1.07-91.33-.03l-2.18,1.46c-6.24-5.02-11.42-5-15.54.06l-2.74-.39c-16.67-.34-35.2-.67-51.17,0-7.86-.97-18.98-11.56-20.47-19.33l7.35-2.32,180.27.04Z"/>
    <path class="cls-42" d="M652.18,451.88c4.33,7.11,6.84,11.55,10.23,19.33-1.89-1.29-4.03-1.12-6.2-1.18-56.41-1.7-113.11,1.42-169.55-.02l-5.06,2.34c-5.59-2.26-11.63-12.2-11.37-18.19l5.06-2.34,176.88.07Z"/>
    <path class="cls-25" d="M669.23,489.41c2.01,6.92,3.48,13.31,4.55,20.47l-2.77-3.51-193.95.09c.4-5.58,8.01-14.35,13.65-14.78.86-.84,1.02-2.49,2.83-2.35l175.7.07Z"/>
    <path class="cls-34" d="M529.37,614.49c-2.39-.02-4.79,1.18-7.34,1.18-41.53.04-90.31-3.24-130.87-.05-3.49.27-2.93-.56-2.79,3.41-4.4-7.77-7.62-13.28-11.37-21.61,0-1.75.45-3.16,2.14-3.21,34.02-.86,68.94-1.07,103.36-1.03,1.93,0,3.87.29,5.81.62s3.89.82,5.82,1.34c.76-1.96,1.87-2.17,3.44-.99,9.41,6.77,19.51,12.43,30.29,16.97l1.52,3.34Z"/>
    <path class="cls-17" d="M596.46,669.07c-53.56,29.92-101.04,26.13-154.65,0,.79-2.59,2.93-2.22,5.06-2.34,47.23-2.71,97.03,2.22,144.54,0l5.06,2.34Z"/>
    <path class="cls-2" d="M597.6,398.43h-156.92c49.98-29.17,107.06-28.97,156.92,0Z"/>
    <path class="cls-8" d="M471.37,575.83c6,1.06,13.76,7.72,18.49,12.24,3.07,1.8,4.49,4.17,4.26,7.09-36.59,1.21-74.05-.02-110.93,1.09-2.16.06-4.3-.11-6.2,1.18-3.31-7.34-4.5-10.61-6.82-18.19l-.41-4.16c32.8.01,65.65-.21,98.55-.67l3.06,1.42Z"/>
    <path class="cls-12" d="M445.22,545.12l2.91.27,11.2,13.84-.46,2.94c-3.33,2.71-7.47,3.84-12.43,3.4-25.75-.29-51.45-.28-77.11.03l-2.57,1.12c-1.77-8.26-3.02-12.85-3.41-21.61l1.06-2.27h77.79l3.02,2.27Z"/>
    <path class="cls-16" d="M672.65,561.04c-1.31,7.49-2.37,11.05-4.55,18.19l-1.39,2.24c-18.87-.43-36.6-.8-53.19-1.11-1.68.17-3.41.17-4.99-.51-6.81-2.91-19.76-9.71-26.01-13.68-1.46-.93-2.35-2.49-3.11-4,.8-2.61,2.94-2.2,5.06-2.34,25.5-1.72,55.97-.23,81.95.05,1.92.02,5.06-.73,6.24,1.16Z"/>
    <path class="cls-4" d="M436.12,528.07l2.61.19,7.76,14.61-1.27,2.26h-81.87c-.05-1.13,0-2.28,0-3.41-1.67-6.82-1.31-12.5,1.09-17.05,23.19.34,46.39.72,69.6,1.14l2.08,2.26Z"/>
    <path class="cls-16" d="M458.87,562.18c4.82.26,12.51,8.86,12.51,13.65-2.02.65-4.05,1.06-6.2,1.18-29.77,1.63-61.07-1.05-91.08-.04-2.19.07-4.56-1.16-3.93,2.27-1.45-4.73-2.31-7.4-3.41-12.51-.14-3.98-.7-3.14,2.79-3.41,28.98-2.28,60.33,2.62,89.32-1.13Z"/>
    <path class="cls-24" d="M428.16,508.74l2.62.64,6.77,16.38-1.43,2.31-72.78-1.14c.03,4.92-.02,9.87,0,14.79-1.9-2.95-1.38-8.54-1.18-11.99.38-6.52,1.33-14.5,2.32-20.99l1.05-2.27c20.42-.04,40.84-.01,61.27.07l1.36,2.2Z"/>
    <path class="cls-47" d="M369.03,489.41l3.26-2.04c17.21-.89,34.35-.84,51.42.14l1.04,5.3c3.36,2.84,5.61,12.06,3.41,15.92h-63.68c1.01-6.66,2.69-12.89,4.55-19.33Z"/>
    <path class="cls-33" d="M376.99,467.8l3.98-1.73c15.33.8,30.63.96,45.9.48,2.27.11,2.7,1.67,1.29,4.67,1.5,2.73,1.38,6.4-.37,11.02.24,4.92-.78,8.45-3.04,10.58-1.35-1.41-.29-3.18-2.77-3.5-15.95-2.05-36.51,1.65-52.95.09,2.18-7.53,4.72-14.48,7.96-21.61Z"/>
    <path class="cls-36" d="M668.1,579.24c-2.68,8.79-4.18,12.32-7.96,20.47l-2.1,2.23c-15.17-.35-30.34-.71-45.51-1.06l-1.28-2.3c-1.98-4.13-1.58-15.42,2.27-18.19.1-.83-.55-2.42.68-2.3l53.9,1.16Z"/>
    <path class="cls-29" d="M660.14,599.71c-3.95,8.52-6.2,12.66-11.37,20.47.63-3.43-1.74-2.2-3.93-2.27-16.82-.56-34.08,1.33-50.65-1.14l-.17-2.57c5.84-4.02,11.48-8.96,14.7-15.36l2.52-.26,48.9,1.14Z"/>
    <path class="cls-30" d="M439.53,453.02l1.05,2.14c-3.86,4.9-6.98,10.27-9.84,15.81l-2.59.25c.63-3.44-1.74-2.19-3.93-2.27-15.66-.62-31.84,1.4-47.24-1.14,2.64-5.8,5.74-11.64,9.1-17.06,15.81.85,32.71-1.12,48.39-.07,2.12.14,4.26-.27,5.06,2.34Z"/>
    <path class="cls-44" d="M470.24,454.15c3.73,5.53,7.76,12.39,11.37,18.19,3.81,6.12,9.99,12.11,9.1,19.33-4.45,4.37-9.19,10.11-13.65,14.78-4.15,4.36-9.62,5.75-7.1,13.33.91,2.75,2.9,3.57,3.69,4.87,4.23,6.95,8.37,13.13,13.65,19.33,6.42,7.54,12.58,13.44,20.47,19.33,1.11-.75,2.29-.9,3.47-.3l18.86,11.83c10.54,7.67,19.09,3.95,25.65-11.18l3.19-.36c8.72-9.73,11.27-5.52,20.47-1.14,11.56,5.51,23.52,11.11,34.11,18.19-.73,6.09-.29,11.96-2.27,18.19-2.06,6.45-11.21,14.75-17.06,18.19-8.85,5.21-19.95,7.68-30.18,6.86-10.96-.87-26.09-9.05-34.64-9.14-5.39-2.97-11.26-4.8-16.68-7.77-3.42-1.87-16.66-11.63-18.57-11.57-6.83-7.2-15.59-12.52-22.74-19.33-4.07-3.88-8.78-9.32-12.51-13.65-4.24-4.93-10.25-11.72-13.65-17.06-2.68-4.22-6.89-12.41-9.1-17.06-2.44-5.13-6.21-14.03-7.96-19.33s-3.19-10.56-3.41-15.92c-.26-6.21,1.25-15.76,3.41-21.61,1.21-3.29,8.9-16.19,11.37-18.19,2.32-1.88,8.58-3.99,11.65-4.84,11.6-3.23,12.35-3.96,19.06,5.98Z"/>
    <path class="cls-16" d="M507.76,563.32c-.63-3.43,1.74-2.2,3.93-2.27,13.86-.46,29.48-.55,43.31,0,2.19.09,4.56-1.17,3.93,2.27-4.81,5.36-9.6,18.28-17.61,18.31-6.67.03-27.41-13.73-33.56-18.31Z"/>
  </g>
</svg>